<?xml version="1.0" encoding="UTF-8"?>
<svg width="53px" height="53px" viewBox="0 0 53 53" version="1.1" xmlns="http://www.w3.org/2000/svg" xmlns:xlink="http://www.w3.org/1999/xlink">
    <!-- Generator: Sketch 60 (88103) - https://sketch.com -->
    <title>icon</title>
    <desc>Created with Sketch.</desc>
    <g id="页面-1" stroke="none" stroke-width="1" fill="none" fill-rule="evenodd">
        <g id="(图标)" transform="translate(-1555.000000, -369.000000)">
            <g id="产量/出厂水/取水单位电耗/供水单位电耗" transform="translate(380.000000, 349.000000)">
                <g id="管网长度(KM)" transform="translate(1155.000000, 0.000000)">
                    <g id="文案" transform="translate(20.000000, 19.000000)">
                        <g id="icon" transform="translate(0.000000, 1.000000)">
                            <rect id="bg" fill="#FFBB0A" x="0" y="0" width="53" height="53" rx="26.5"></rect>
                            <path d="M18.9289776,27.1462043 L18.9289776,16.8894096 L34.23308,16.8894096 L31.0984914,21.4941706 C30.8835482,21.8113215 30.8835482,22.225642 31.0984914,22.5427929 L34.23308,27.1462043 L18.9289776,27.1462043 Z M33.0605372,22.0178069 L36.8385776,16.4696907 C37.0356089,16.1795314 37.0535208,15.8070478 36.8854242,15.499344 C36.7173276,15.1929897 36.3907792,15 36.0352962,15 L17.9644888,15 C17.4312643,15 17,15.422418 17,15.9447048 L17,28.0909091 L17,38.0552952 C17,38.577582 17.4312643,39 17.9644888,39 C18.4977133,39 18.9289776,38.577582 18.9289776,38.0552952 L18.9289776,29.0356139 L36.0352962,29.0356139 C36.3907792,29.0356139 36.7173276,28.8439738 36.8854242,28.5362699 C37.0535208,28.2299157 37.0356089,27.8560825 36.8385776,27.5672727 L33.0605372,22.0178069 Z" id="Fill-1" fill="#FFFFFF"></path>
                        </g>
                    </g>
                </g>
            </g>
        </g>
    </g>
</svg>