<?xml version="1.0" encoding="UTF-8"?>
<svg width="53px" height="53px" viewBox="0 0 53 53" version="1.1" xmlns="http://www.w3.org/2000/svg" xmlns:xlink="http://www.w3.org/1999/xlink">
    <!-- Generator: Sketch 60 (88103) - https://sketch.com -->
    <title>icon</title>
    <desc>Created with Sketch.</desc>
    <g id="页面-1" stroke="none" stroke-width="1" fill="none" fill-rule="evenodd">
        <g id="(图标)" transform="translate(-400.000000, -176.000000)">
            <g id="产量/出厂水/取水单位电耗/供水单位电耗" transform="translate(360.000000, 156.000000)">
                <g id="产量(吨)" transform="translate(20.000000, 0.000000)">
                    <g id="文案" transform="translate(20.000000, 19.000000)">
                        <g id="icon" transform="translate(0.000000, 1.000000)">
                            <rect id="矩形" fill="#078AF4" x="0" y="0" width="53" height="53" rx="26.5"></rect>
                            <path d="M32.6289862,15 C32.9781841,15 33.304358,15.1547727 33.5243654,15.4259447 L33.5243654,15.4259447 L38.1496386,21.11544 C38.4336017,21.4633587 38.4911618,21.9327933 38.2967366,22.3382721 C38.1048696,22.743751 37.7045072,22.9970154 37.2555385,22.9970154 L37.2555385,22.9970154 L35.5862958,22.9970154 L35.5862958,38.3604434 C35.5862958,38.7147578 35.2997745,39 34.9467393,39 C34.593704,39 34.3071827,38.7147578 34.3071827,38.3604434 L34.3071827,38.3604434 L34.3071827,22.3574588 C34.3071827,22.0031445 34.593704,21.7179023 34.9467393,21.7179023 L34.9467393,21.7179023 L36.9907621,21.7179023 L32.6302653,16.3520226 L28.2940718,21.7179023 L30.343211,21.7179023 C30.6975254,21.7179023 30.9827676,22.0031445 30.9827676,22.3574588 L30.9827676,22.3574588 L30.9827676,34.9503278 C30.9827676,35.3046421 30.6975254,35.5898843 30.343211,35.5898843 C29.9901758,35.5898843 29.7036545,35.3046421 29.7036545,34.9503278 L29.7036545,34.9503278 L29.7036545,22.9970154 L28.0331327,22.9970154 C27.584164,22.9970154 27.1863598,22.7450301 26.9919346,22.3408304 C26.7987885,21.9366306 26.8525113,21.4671961 27.1339161,21.1179982 L27.1339161,21.1179982 L31.7310488,15.4285029 C31.9510563,15.1560518 32.2785092,15 32.6277071,15 L32.6277071,15 Z M20.7520369,21.7175185 C21.0999557,21.7175185 21.4261295,21.8722912 21.646137,22.1434632 L21.646137,22.1434632 L26.2714102,27.8329585 C26.5553733,28.1821564 26.6129334,28.6503118 26.4185082,29.0557907 C26.2266412,29.4625486 25.8275579,29.7145339 25.3773101,29.7145339 L25.3773101,29.7145339 L23.7055092,29.7145339 L23.7055092,36.667793 C23.7055092,37.0221073 23.4202669,37.3073496 23.0659526,37.3073496 C22.7129174,37.3073496 22.426396,37.0221073 22.426396,36.667793 L22.426396,36.667793 L22.426396,29.0788147 C22.426396,28.901018 22.4993055,28.7398497 22.6169839,28.6247295 C22.7321041,28.5083302 22.8932723,28.4354208 23.0697899,28.4354208 L23.0697899,28.4354208 L25.1125336,28.4354208 L20.7520369,23.0708202 L16.4171225,28.4354208 L18.4675408,28.4354208 C18.8205761,28.4354208 19.1070974,28.7219421 19.1070974,29.0749773 L19.1070974,29.0749773 L19.1032601,29.094164 L19.1032601,34.9512232 C19.1032601,35.3042584 18.8167387,35.5907797 18.4637035,35.5907797 C18.1093892,35.5907797 17.8241469,35.3042584 17.8241469,34.9512232 L17.8241469,34.9512232 L17.8241469,29.7145339 L16.1549043,29.7145339 C15.7059355,29.7145339 15.3068522,29.4638277 15.1149853,29.0583489 C14.9205601,28.65287 14.9755619,28.1847146 15.2582459,27.8342376 L15.2582459,27.8342376 L19.8553786,22.1460214 C20.0728278,21.8748494 20.3977226,21.7187976 20.7481996,21.7175185 L20.7481996,21.7175185 Z" stroke="#FFFFFF" stroke-width="0.4" fill="#FFFFFF"></path>
                        </g>
                    </g>
                </g>
            </g>
        </g>
    </g>
</svg>