<?xml version="1.0" encoding="UTF-8"?>
<svg width="54px" height="54px" viewBox="0 0 54 54" version="1.1" xmlns="http://www.w3.org/2000/svg" xmlns:xlink="http://www.w3.org/1999/xlink">
    <!-- Generator: Sketch 60 (88103) - https://sketch.com -->
    <title>icon</title>
    <desc>Created with Sketch.</desc>
    <g id="页面-1" stroke="none" stroke-width="1" fill="none" fill-rule="evenodd">
        <g id="导航-未展开(白色)" transform="translate(-400.000000, -784.000000)">
            <g id="3" transform="translate(380.000000, 766.000000)">
                <g id="污水处理量">
                    <g id="icon" transform="translate(20.000000, 18.000000)">
                        <rect id="矩形" fill="#FFBB0A" x="0" y="0" width="54" height="54" rx="26.5"></rect>
                        <path d="M25.6580299,36.5001995 C25.8490891,36.0497552 26.3716551,35.8422472 26.8195689,36.0333064 C27.2700132,36.2243657 27.4787865,36.7444011 27.2877273,37.1948454 C27.0789539,37.6832485 26.9536899,38.3576497 26.9258535,39.1459272 C26.9068741,39.624208 26.5146332,40 26.0414137,40 L26.0414137,40 L26.0072507,39.9987347 C25.5188476,39.9810206 25.1367292,39.5698004 25.1557086,39.0813973 C25.192402,38.0628364 25.3619513,37.1948454 25.6580299,36.5001995 Z M37.6431384,14 C38.1328067,14 38.5301088,14.3960367 38.5301088,14.8857051 L38.5301088,14.8857051 L38.5301088,34.0675472 C38.5301088,34.5572156 38.1328067,34.9532523 37.6431384,34.9532523 C37.1547352,34.9532523 36.7574332,34.5572156 36.7574332,34.0675472 L36.7574332,34.0675472 L36.7574332,32.7263366 C33.7181994,33.0211499 32.0189109,34.90011 31.3508362,35.8364268 L31.3508362,35.8364268 L31.73422,36.2248718 C32.0771144,36.5728273 32.0733185,37.1346174 31.7253629,37.4775118 C31.5532831,37.6483264 31.3280609,37.733101 31.1041041,37.733101 C30.875086,37.733101 30.646068,37.6457958 30.4727228,37.4699201 L30.4727228,37.4699201 L19.7076099,26.5656249 L19.7000181,26.5580332 L18.6472944,25.4926564 C18.3031347,25.1434356 18.3069305,24.5829108 18.6561514,24.2387511 C19.0028417,23.8958567 19.5646318,23.8983872 19.9075262,24.2463428 L19.9075262,24.2463428 L20.2883794,24.6309919 C21.2500021,23.5807987 23.2744709,21.6246557 26.3124394,19.8355314 C26.4275811,19.7191244 26.5617021,19.639411 26.712272,19.5989216 C29.3453468,18.1084064 32.7072303,16.7950323 36.7574332,16.2825886 L36.7574332,16.2825886 L36.7574332,14.8857051 C36.7574332,14.3960367 37.1547352,14 37.6431384,14 Z M21.6904506,32.4586006 C22.033345,32.1081144 22.5938698,32.101788 22.9430907,32.4446824 C23.2935768,32.7875768 23.298638,33.3481016 22.9557436,33.6973224 C22.4445652,34.2211538 22.0573856,35.1815111 21.8675916,36.4050495 C21.7980005,36.8428409 21.4209432,37.1553682 20.9920088,37.1553682 C20.9464583,37.1553682 20.9009077,37.1515724 20.8553572,37.1439806 C20.3720153,37.0693283 20.0405085,36.6163534 20.1164261,36.1330115 C20.37075,34.5020488 20.8996424,33.2658575 21.6904506,32.4586006 Z M17.9946562,28.276048 C18.2882042,27.8838072 18.8424025,27.805359 19.2333781,28.1001723 C19.6256189,28.3962508 19.7040671,28.9504492 19.4092538,29.3414247 C17.6947818,31.6189521 16.9204224,34.2330475 16.767322,35.9222137 C16.7255673,36.381515 16.339653,36.7282053 15.8866781,36.7282053 C15.8601069,36.7282053 15.8335358,36.72694 15.8069646,36.7244094 C15.3185615,36.6801242 14.9604836,36.2499246 15.0035035,35.7615215 C15.178114,33.8306843 16.0562273,30.849654 17.9946562,28.276048 Z M26.9071271,21.5626563 C24.1753595,23.2252514 22.3571335,25.002988 21.5359583,25.8962849 L21.5359583,25.8962849 L30.0956655,34.5572156 C30.5068858,34.0232619 31.1357364,33.3513913 31.9758909,32.7288672 C31.6051601,27.6676951 28.9682895,23.3884742 26.9071271,21.5626563 Z M36.7574332,18.0502029 C33.5397931,18.4841984 30.7915767,19.4850452 28.5304981,20.6491148 C30.8409231,22.9329687 33.1020017,27.1109662 33.6612612,31.7432039 C34.5431705,31.3459019 35.5629966,31.0409663 36.7574332,30.9473346 L36.7574332,30.9473346 Z" id="形状结合" fill="#FFFFFF"></path>
                    </g>
                </g>
            </g>
        </g>
    </g>
</svg>