<?xml version="1.0" encoding="UTF-8"?>
<svg width="54px" height="54px" viewBox="0 0 54 54" version="1.1" xmlns="http://www.w3.org/2000/svg" xmlns:xlink="http://www.w3.org/1999/xlink">
    <!-- Generator: Sketch 60 (88103) - https://sketch.com -->
    <title>icon</title>
    <desc>Created with Sketch.</desc>
    <g id="页面-1" stroke="none" stroke-width="1" fill="none" fill-rule="evenodd">
        <g id="水司首页-关键指标-自来水" transform="translate(-785.000000, -330.000000)">
            <g id="二级" transform="translate(380.000000, 152.000000)">
                <g id="总用电量" transform="translate(385.000000, 160.000000)">
                    <g id="icon" transform="translate(20.000000, 18.000000)">
                        <rect id="矩形" fill="#1BBD6C" x="0" y="0" width="54" height="54" rx="26.5"></rect>
                        <path d="M28.9751418,16.7240968 C29.3354879,16.2929684 29.9339199,16.1784298 30.4268219,16.4435416 C30.9210108,16.7086534 31.1539489,17.2697638 30.9930801,17.8077091 L30.9930801,17.8077091 L29.1926364,23.8036111 L33.5721287,23.8036111 C34.0289961,23.8036111 34.4343855,24.0584273 34.6325759,24.4702514 C34.8307662,24.8820755 34.7767143,25.3595341 34.4922983,25.7147325 L34.4922983,25.7147325 L25.9701126,36.4015688 C25.7423223,36.6872718 25.41415,36.8404189 25.0743951,36.8404189 C24.8852134,36.8404189 24.6921708,36.7915147 24.5107108,36.6924196 C24.0100871,36.4170122 23.7900185,35.8468931 23.9779133,35.305087 L23.9779133,35.305087 L26.2532417,28.739066 L21.4477688,28.739066 C20.9921883,28.739066 20.5880859,28.4816759 20.3950433,28.0685648 C20.2007138,27.6554537 20.2624874,27.180569 20.5546252,26.8292315 L20.5546252,26.8292315 Z M37.2790607,17.0919072 C38.6329325,17.0919072 39.7358491,18.1935368 39.7358491,19.5474086 L39.7358491,19.5474086 L39.7358491,33.9393752 C39.7358491,35.294534 38.6329325,36.3961636 37.2790607,36.3961636 L37.2790607,36.3961636 L34.6807078,36.3961636 C34.3255095,36.3961636 34.0372326,36.1078867 34.0372326,35.7526884 C34.0372326,35.39749 34.3255095,35.1092132 34.6807078,35.1092132 L34.6807078,35.1092132 L37.2790607,35.1092132 C37.9238229,35.1092132 38.4488986,34.5841374 38.4488986,33.9393752 L38.4488986,33.9393752 L38.4488986,19.5474086 C38.4488986,18.9026465 37.9238229,18.3788577 37.2790607,18.3788577 L37.2790607,18.3788577 L34.6807078,18.3788577 C34.3255095,18.3788577 34.0372326,18.0905808 34.0372326,17.7353825 C34.0372326,17.3801841 34.3255095,17.0919072 34.6807078,17.0919072 L34.6807078,17.0919072 Z M20.3381601,17.0919072 C20.6933584,17.0919072 20.9816353,17.3801841 20.9816353,17.7353825 C20.9816353,18.0905808 20.6933584,18.3788577 20.3381601,18.3788577 L20.3381601,18.3788577 L17.7256508,18.3788577 C17.0886103,18.3788577 16.5699693,18.8974987 16.5699693,19.5345391 L16.5699693,19.5345391 L16.5699693,33.9535317 C16.5699693,34.5905721 17.0886103,35.1092132 17.7256508,35.1092132 L17.7256508,35.1092132 L20.3381601,35.1092132 C20.6933584,35.1092132 20.9816353,35.39749 20.9816353,35.7526884 C20.9816353,36.1078867 20.6933584,36.3961636 20.3381601,36.3961636 L20.3381601,36.3961636 L17.7256508,36.3961636 C16.3795006,36.3961636 15.2830189,35.2996818 15.2830189,33.9535317 L15.2830189,33.9535317 L15.2830189,19.5345391 C15.2830189,18.188389 16.3795006,17.0919072 17.7256508,17.0919072 L17.7256508,17.0919072 Z M29.594165,17.991743 L21.7115936,27.4521155 L26.4411364,27.4521155 C26.8130651,27.4521155 27.1644026,27.6322886 27.3806102,27.9360089 C27.5955309,28.2384422 27.6521568,28.6296752 27.5311834,28.9797257 L27.5311834,28.9797257 L25.4488976,34.9910711 L33.3443385,25.0905615 L29.0240459,25.0905615 C28.6534042,25.0905615 28.3149362,24.9193971 28.0922938,24.6221116 C27.8709383,24.324826 27.8053039,23.9516104 27.9121207,23.5964121 L27.9121207,23.5964121 L29.594165,17.991743 Z" stroke="#FFFFFF" stroke-width="0.4" fill="#FFFFFF"></path>
                    </g>
                </g>
            </g>
        </g>
    </g>
</svg>