<?xml version="1.0" encoding="UTF-8"?>
<svg width="54px" height="54px" viewBox="0 0 54 54" version="1.1" xmlns="http://www.w3.org/2000/svg" xmlns:xlink="http://www.w3.org/1999/xlink">
    <!-- Generator: Sketch 60 (88103) - https://sketch.com -->
    <title>icon</title>
    <desc>Created with Sketch.</desc>
    <g id="页面-1" stroke="none" stroke-width="1" fill="none" fill-rule="evenodd">
        <g id="水司首页-关键指标-自来水" transform="translate(-1170.000000, -330.000000)">
            <g id="二级" transform="translate(380.000000, 152.000000)">
                <g id="千吨水电量" transform="translate(770.000000, 160.000000)">
                    <g id="icon" transform="translate(20.000000, 18.000000)">
                        <rect id="矩形" fill="#088AF4" x="0" y="0" width="54" height="54" rx="26.5"></rect>
                        <path d="M23.7398371,15.3020521 C23.8736842,15.2724514 24.0101053,15.2750253 24.1310824,15.326505 C24.1323694,15.327792 24.1349434,15.327792 24.1362304,15.327792 C24.1645442,15.3406619 24.1812751,15.3612537 24.2070149,15.3766976 C24.2520596,15.4050114 24.2996783,15.4294643 24.338288,15.468074 C24.3743237,15.5066837 24.3962026,15.5517284 24.4232294,15.5967731 C24.4399603,15.6237999 24.4618391,15.6431048 24.474709,15.6727056 C26.201851,19.8489916 27.6123932,21.9133252 30.1683575,25.2479191 C30.9006554,24.0780442 31.539003,22.815506 32.3575293,20.9300641 C32.3742602,20.8914543 32.402574,20.8657145 32.4244528,20.8322527 C32.4476187,20.798791 32.4656365,20.7601812 32.4952373,20.7292935 C32.6277974,20.5980204 32.8131241,20.5349578 33.0010248,20.5516887 C33.0705223,20.5568367 33.1374459,20.5671326 33.2005084,20.5941594 C33.2017954,20.5954464 33.2030824,20.5941594 33.2043694,20.5954464 C33.2262483,20.6044553 33.2416922,20.6224732 33.260997,20.6340561 C33.3124767,20.6636569 33.3639563,20.6932577 33.40514,20.7357284 C33.4437498,20.7730512 33.4669156,20.8206698 33.4939424,20.8657145 C33.5093863,20.8914543 33.5312651,20.9107592 33.5428481,20.939073 C34.8826058,24.1758555 35.9726872,25.7614285 37.9713843,28.3688724 L37.9713843,28.3688724 L37.9726713,28.3701594 L37.9765323,28.3765944 L37.9791063,28.3791683 C39.1772949,29.8888088 39.7358491,31.3366738 39.7358491,32.9364037 C39.7358491,36.6815477 36.6908282,39.7278555 32.9482582,39.7278555 C31.3523893,39.7278555 29.9122463,39.1937542 28.7256405,38.22465 C27.3446991,39.1705884 25.6767587,39.7278555 23.8801192,39.7278555 C19.1401311,39.7278555 15.2830189,35.8694563 15.2830189,31.1256073 C15.2830189,29.0702825 15.9754201,27.2839389 17.5249573,25.3354345 L17.5249573,25.3354345 C20.0899305,21.9931187 21.2160477,20.4397205 23.2893903,15.6624096 C23.3022602,15.6315219 23.325426,15.613504 23.3421569,15.5864772 C23.3704707,15.5427195 23.3936365,15.4976748 23.4296723,15.461639 C23.4644211,15.4268903 23.5068918,15.4075854 23.5467885,15.3831326 C23.5776763,15.3638277 23.5995551,15.3380879 23.6343039,15.323931 C23.6368779,15.322644 23.6394518,15.322644 23.6420258,15.322644 C23.6729136,15.3097741 23.7063754,15.3097741 23.7398371,15.3020521 Z M32.9405362,22.7756092 C32.2661529,24.2311961 31.67285,25.3148426 30.9778749,26.3701753 C32.0010328,27.9312954 32.4759325,29.438362 32.4759325,31.1256073 C32.4759325,33.5992041 31.4205998,35.8256986 29.7462244,37.3958277 C30.6612751,38.068924 31.7487825,38.4408645 32.9482582,38.4408645 C35.9804091,38.4408645 38.448858,35.9711286 38.448858,32.9364037 C38.448858,31.6223858 37.9919762,30.4615199 36.9649573,29.1719548 L36.9649573,29.1719548 L36.9610963,29.1655199 C35.1799007,26.843788 34.0949672,25.2968247 32.9405362,22.7756092 Z M23.8711102,17.5208247 C22.0937756,21.4178337 20.9187527,23.0252855 18.5391063,26.129508 C18.5378193,26.1307949 18.5365323,26.1307949 18.5365323,26.1320819 C18.5339583,26.1333689 18.5339583,26.1359429 18.5326713,26.1372299 C17.1748957,27.8424931 16.5700099,29.3804474 16.5700099,31.1256073 C16.5700099,35.1590372 19.8492632,38.4408645 23.8801192,38.4408645 C27.9096882,38.4408645 31.1889414,35.1590372 31.1889414,31.1256073 C31.1889414,29.3791604 30.5840556,27.8412061 29.227567,26.1372299 C29.22628,26.1359429 29.22628,26.1333689 29.224993,26.1333689 C29.2237061,26.1320819 29.2211321,26.1320819 29.2211321,26.129508 C26.8414856,23.0265725 25.4245084,20.9969876 23.8711102,17.5208247 Z M28.7789219,29.9005205 C29.1354185,29.9005205 29.4224175,30.1888065 29.4224175,30.544016 C29.4224175,33.3110468 27.6322129,35.6559445 25.1637641,36.1205483 C25.1225803,36.1282702 25.0826836,36.1321312 25.0427869,36.1321312 C24.740344,36.1321312 24.4700759,35.9172037 24.4121613,35.6083258 C24.3452377,35.2582643 24.5756091,34.9223596 24.9243837,34.856723 C26.7853728,34.5053745 28.1354264,32.6920041 28.1354264,30.544016 C28.1354264,30.1888065 28.4237124,29.9005205 28.7789219,29.9005205 Z" stroke="#FFFFFF" stroke-width="0.2" fill="#FFFFFF"></path>
                    </g>
                </g>
            </g>
        </g>
    </g>
</svg>