<?xml version="1.0" encoding="UTF-8"?>
<svg width="53px" height="53px" viewBox="0 0 53 53" version="1.1" xmlns="http://www.w3.org/2000/svg" xmlns:xlink="http://www.w3.org/1999/xlink">
    <!-- Generator: Sketch 60 (88103) - https://sketch.com -->
    <title>icon</title>
    <desc>Created with Sketch.</desc>
    <g id="页面-1" stroke="none" stroke-width="1" fill="none" fill-rule="evenodd">
        <g id="(图标)" transform="translate(-1170.000000, -176.000000)">
            <g id="产量/出厂水/取水单位电耗/供水单位电耗" transform="translate(360.000000, 156.000000)">
                <g id="取水单位电耗(KWH)" transform="translate(790.000000, 0.000000)">
                    <g id="文案" transform="translate(20.000000, 19.000000)">
                        <g id="icon" transform="translate(0.000000, 1.000000)">
                            <rect id="矩形" fill="#1BBD6C" x="0" y="0" width="53" height="53" rx="26.5"></rect>
                            <path d="M24.7797607,14 C24.8414483,14 24.9004539,14.0040231 24.9594595,14.0147514 C24.9889622,14.0201155 25.017124,14.0147514 25.0479678,14.0227976 C25.0814937,14.0335259 25.1069734,14.0576645 25.1378172,14.0710749 C25.1927997,14.0938725 25.241077,14.1206932 25.2920363,14.1528781 C25.3456777,14.187745 25.392614,14.226635 25.4368682,14.2722302 C25.4770992,14.3111203 25.5119662,14.3540334 25.544151,14.4036517 C25.580359,14.4572932 25.6098618,14.5122756 25.6340004,14.5712812 C25.6474108,14.602125 25.6702084,14.6235816 25.6795956,14.6544254 C26.4010728,17.0763359 27.2392201,19.0825253 28.3147308,20.9693625 C28.5722096,21.4199505 28.4153084,21.9939138 27.9647204,22.2500516 C27.8172065,22.3345368 27.6576233,22.3734269 27.5007221,22.3734269 C27.1748504,22.3734269 26.858366,22.2031153 26.6840314,21.8987002 C25.9531669,20.6180111 25.3362905,19.2756344 24.7811017,17.8206107 C23.477615,21.2308645 21.8871467,23.7037343 19.756241,26.4823602 C19.7535589,26.4850423 19.7508768,26.4850423 19.7481948,26.4890654 L19.7468537,26.4917475 C18.4540953,28.1184238 17.87745,29.5761296 17.87745,31.2215804 C17.87745,35.0260986 20.9739014,38.12255 24.7797607,38.12255 C28.5842789,38.12255 31.6793893,35.0260986 31.6793893,31.2215804 C31.6793893,31.0794306 31.6472045,30.9506911 31.6391582,30.8112234 C28.8551681,31.5903652 27.4658552,32.9984527 27.5181556,35.0059831 C27.5302249,35.5249639 27.121209,35.9554364 26.6035692,35.9701877 L26.6035692,35.9701877 L26.5794306,35.9701877 C26.071178,35.9701877 25.6541159,35.565195 25.6393646,35.0556014 C25.5642666,32.1120281 27.573138,29.9435733 31.2985352,28.9512069 C31.3508356,28.9364555 31.442026,28.917681 31.5613782,28.8908603 C31.7223025,28.8586755 31.9449144,28.8117392 32.2117805,28.7379823 C34.5344543,28.1063544 35.8634207,26.7398391 36.1651537,24.6733031 L36.1651537,24.6733031 L35.4892717,25.3491851 C35.3055498,25.5315659 35.0655044,25.6240974 34.825459,25.6240974 C34.5854137,25.6240974 34.3453683,25.5315659 34.1616464,25.3491851 C33.7942026,24.9817413 33.7942026,24.3876625 34.1616464,24.0202187 L34.1616464,24.0202187 L36.3596039,21.8222612 C36.3958118,21.7860532 36.4414071,21.7713018 36.4802971,21.7417991 C36.5339385,21.702909 36.5848979,21.6586548 36.6479266,21.6304931 C36.7190014,21.5996493 36.7940994,21.590262 36.8678564,21.5768517 C36.9094285,21.5688054 36.9456365,21.5500309 36.9872086,21.5486899 C36.9939138,21.5486899 36.9992779,21.551372 37.004642,21.551372 L37.004642,21.551372 L37.0247576,21.5473489 C37.0623066,21.5473489 37.0971735,21.5634413 37.1360635,21.5688054 C37.3439241,21.588921 37.5330101,21.6707242 37.679183,21.815556 C37.6818651,21.8182381 37.6858882,21.8195791 37.6885702,21.8222612 L37.6885702,21.8222612 L39.8516608,23.9866928 C40.2177636,24.3527955 40.2177636,24.9482154 39.8516608,25.3143181 C39.6679389,25.49804 39.4278935,25.5892305 39.1878482,25.5892305 C38.9464617,25.5892305 38.7064163,25.49804 38.5240355,25.3143181 L38.5240355,25.3143181 L38.0345575,24.8248401 C37.6577264,27.4653394 36.0578708,29.3401073 33.507221,30.2801733 C33.5394058,30.5899525 33.5581803,30.9024139 33.5581803,31.2215804 C33.5581803,36.0613782 29.6195585,40 24.7797607,40 C19.9386218,40 16,36.0613782 16,31.2215804 C16,29.1577264 16.7187951,27.2896637 18.2623272,25.345162 C18.2636682,25.3438209 18.2636682,25.3411388 18.2650093,25.3384568 C20.8384568,21.9885496 22.4959769,19.2930679 23.8799257,14.6544254 C23.889313,14.6235816 23.9107695,14.602125 23.9241799,14.5712812 C23.9496596,14.5122756 23.9778213,14.4572932 24.0140293,14.4036517 C24.0475552,14.3540334 24.0810811,14.3111203 24.1226532,14.2722302 C24.1669074,14.226635 24.2138436,14.187745 24.267485,14.1528781 C24.3171034,14.1206932 24.3653806,14.0938725 24.4203631,14.0710749 C24.452548,14.0576645 24.4766866,14.0335259 24.5115535,14.0227976 C24.5410563,14.0147514 24.5692181,14.0201155 24.6000619,14.0147514 C24.6590675,14.0040231 24.718073,14 24.7797607,14 Z M33.3236332,16.2707757 L33.3839798,16.2828451 C33.615979,16.281504 33.8278626,16.3767176 33.9861048,16.5456881 L33.9861048,16.5456881 L33.9874458,16.5456881 L36.1974727,18.7570559 C36.5649164,19.1244997 36.5649164,19.7185785 36.1974727,20.0860223 C36.0150918,20.2684031 35.7737054,20.3609346 35.53366,20.3609346 C35.2936146,20.3609346 35.0535692,20.2684031 34.8698473,20.0860223 L34.8698473,20.0860223 L34.3387972,19.5536311 L34.3387972,19.5817929 C34.0933877,21.3331855 33.2351248,23.3769239 30.7850526,24.6696823 C30.8118733,24.7045492 30.8333299,24.735393 30.8588096,24.77026 L30.8588096,24.77026 L31.2906231,25.3388591 C31.2919641,25.3402001 31.2919641,25.3415412 31.2933051,25.3428822 C31.550784,25.6526614 31.7868063,25.9637817 32.001372,26.2829482 C32.2923767,26.7120796 32.1797297,27.2954302 31.7505983,27.5864349 C31.589674,27.6950588 31.4059521,27.7473592 31.2249123,27.7473592 C30.9245203,27.7473592 30.6281514,27.6025273 30.4457706,27.3356612 C30.2580256,27.0567258 30.0501651,26.7831545 29.8248711,26.5109243 C29.8208479,26.5055601 29.8208479,26.498855 29.8168248,26.4934908 C29.8128017,26.4894677 29.8074376,26.4881267 29.8034145,26.4827625 L29.8034145,26.4827625 L29.3581906,25.8967299 C29.2267691,25.7210543 29.1007118,25.5480607 28.9733134,25.372385 C28.6930369,25.4541882 28.432876,25.5480607 28.1244378,25.6137714 L28.1244378,25.6137714 L27.9635135,25.6486383 C25.0078708,26.4371673 23.5367547,27.9015783 23.5930782,29.9989581 C23.6064885,30.5179389 23.1974727,30.9484114 22.6784919,30.9631628 L22.6784919,30.9631628 L22.6543532,30.9631628 C22.1474417,30.9631628 21.7290386,30.55817 21.7156282,30.0485764 C21.6365071,27.0553848 23.6829276,24.84804 27.4780586,23.832876 C27.5357231,23.8194656 27.6242315,23.7993501 27.7368785,23.7752115 C30.5906024,23.1717454 32.1381576,21.7515886 32.4693934,19.4289148 L32.4693934,19.4289148 L32.4693934,19.3913658 L31.7412111,20.1195482 C31.5574892,20.3032701 31.3174438,20.3944605 31.0773984,20.3944605 C30.837353,20.3944605 30.5973076,20.3032701 30.4135857,20.1195482 C30.0461419,19.7521044 30.0461419,19.1580256 30.4135857,18.7919228 L30.4135857,18.7919228 L32.6598205,16.5456881 C32.6946874,16.5108211 32.7389416,16.4960697 32.7778316,16.4665669 C32.8328141,16.4263359 32.8851145,16.3820817 32.9494842,16.35392 L32.9494842,16.35392 L32.9695998,16.3391686 C33.0326284,16.3136889 33.0996802,16.3123478 33.1640499,16.3016196 C33.205622,16.2935733 33.243171,16.2734578 33.2860842,16.2721168 C33.2927894,16.2707757 33.2994945,16.2747988 33.3061997,16.2734578 C33.3115639,16.2734578 33.318269,16.2707757 33.3236332,16.2707757 L33.3236332,16.2707757 Z" id="形状结合" fill="#FFFFFF"></path>
                        </g>
                    </g>
                </g>
            </g>
        </g>
    </g>
</svg>