<?xml version="1.0" encoding="UTF-8"?>
<svg width="53px" height="53px" viewBox="0 0 53 53" version="1.1" xmlns="http://www.w3.org/2000/svg" xmlns:xlink="http://www.w3.org/1999/xlink">
    <!-- Generator: Sketch 60 (88103) - https://sketch.com -->
    <title>icon</title>
    <desc>Created with Sketch.</desc>
    <g id="页面-1" stroke="none" stroke-width="1" fill="none" fill-rule="evenodd">
        <g id="(图标)" transform="translate(-1555.000000, -176.000000)">
            <g id="产量/出厂水/取水单位电耗/供水单位电耗" transform="translate(360.000000, 156.000000)">
                <g id="取水单位电耗(KWH)" transform="translate(1175.000000, 0.000000)">
                    <g id="文案" transform="translate(20.000000, 19.000000)">
                        <g id="icon" transform="translate(0.000000, 1.000000)">
                            <rect id="bg" fill="#33B5D0" x="0" y="0" width="53" height="53" rx="26.5"></rect>
                            <path d="M25.7766259,12 C25.8409923,12 25.9013358,12.0026819 25.9616793,12.0160916 C25.9911806,12.0201145 26.0179999,12.0160916 26.0461602,12.0227964 C26.0770024,12.0321832 26.1011398,12.0563206 26.1306411,12.0683893 C26.1883026,12.0925267 26.2406003,12.120687 26.292898,12.1542112 C26.3438548,12.1890763 26.3894476,12.2266233 26.4336995,12.2695343 C26.4739285,12.3111042 26.5087936,12.3553561 26.5423178,12.4036309 C26.5785239,12.4572696 26.6080252,12.5122492 26.6321626,12.5725927 C26.6455722,12.602094 26.6670277,12.6235494 26.6764145,12.6543917 C27.4005364,15.0788591 28.2372995,17.0849451 29.3127547,18.969003 C29.5702202,19.4195678 29.4119862,19.9935015 28.9614214,20.2496261 C28.8152561,20.334107 28.6556811,20.372995 28.498788,20.372995 C28.1729331,20.372995 27.8537831,20.2026922 27.6807984,19.8982928 C26.9526536,18.6190108 26.334468,17.2767033 25.7779669,15.8204136 C24.4772294,19.2278096 22.8868431,21.7032338 20.7547063,24.4817164 C20.7533653,24.4843984 20.7506834,24.4843984 20.7493424,24.4857393 C20.7466605,24.4897622 20.7466605,24.4937851 20.7439785,24.4964671 C19.4539687,26.1163546 18.8773531,27.5739852 18.8773531,29.2206921 C18.8773531,33.0263551 21.9736449,36.1213059 25.7766259,36.1213059 C29.5822889,36.1213059 32.6785806,33.0263551 32.6785806,29.2206921 C32.6785806,29.0637991 32.6477384,28.9149518 32.6396926,28.7607406 C30.3278663,28.7379442 28.7482077,29.6203002 27.8336686,31.4507195 L27.8336686,31.4507195 L27.8215999,31.4855846 L28.7428439,31.0256331 C29.2108412,30.7909639 29.7713652,30.9827222 30.0020114,31.4466966 C30.2339987,31.910671 30.0449224,32.4738769 29.580948,32.7045232 L29.580948,32.7045232 L26.7394399,34.1232658 C26.7246893,34.1313116 26.7099386,34.1272887 26.695188,34.1339935 C26.5785239,34.1862912 26.455155,34.2211563 26.3250812,34.2224973 L26.3250812,34.2224973 C26.2338955,34.2224973 26.1467327,34.2104286 26.0582289,34.1849502 C26.0032493,34.1688586 25.9630203,34.1339935 25.9134045,34.1085151 C25.8731755,34.0897416 25.8356284,34.07365 25.7994224,34.0481716 C25.6680076,33.9610088 25.5607303,33.8497086 25.4910001,33.71293 L25.4910001,33.71293 L25.4816133,33.7022023 L24.0856671,30.9049461 C23.8536799,30.4423127 24.0414152,29.8777657 24.5053897,29.6471195 C24.9747279,29.4097684 25.533911,29.6028676 25.7645572,30.066842 L25.7645572,30.066842 L26.1011398,30.7400072 C26.1038218,30.7319614 26.1065037,30.7239156 26.1091856,30.7131879 C27.1028418,28.7164887 29.1625664,26.5870339 33.505957,26.94239 C33.5756872,26.943731 33.6467585,26.9370261 33.7124658,26.9517768 C33.784878,26.9598226 33.8438806,26.9544587 33.9176337,26.9625045 L33.9176337,26.9625045 L34.0798907,26.981278 C37.1279076,27.1623085 38.991851,26.2477694 39.6033318,24.2390015 C39.754861,23.7441848 40.2832018,23.4692867 40.7753365,23.6141111 C41.2714941,23.7656403 41.5504152,24.2912992 41.4002269,24.7861158 C40.5674867,27.5082779 38.1229047,28.9484759 34.5250915,28.8613131 C34.5304554,28.9820001 34.5559338,29.0986642 34.5559338,29.2206921 C34.5559338,34.0602403 30.6175151,38 25.7766259,38 C20.9370777,38 17,34.0602403 17,29.2206921 C17,27.1488989 17.7241219,25.2742277 19.2756202,23.3258033 L19.2756202,23.3258033 C21.8435711,19.9787508 23.4969828,17.2847491 24.8781783,12.6543917 C24.8862241,12.6235494 24.9090206,12.602094 24.9210893,12.5739337 C24.9452267,12.5135902 24.9747279,12.4586106 25.012275,12.4036309 C25.0457992,12.3553561 25.0793233,12.3111042 25.1208933,12.2708752 C25.1638042,12.2266233 25.210738,12.1890763 25.2616948,12.1542112 C25.3139925,12.120687 25.3662902,12.0925267 25.4239517,12.0697303 C25.453453,12.0563206 25.4762494,12.0335242 25.5084326,12.0227964 C25.5379339,12.0160916 25.5647532,12.0201145 25.5942545,12.0160916 C25.654598,12.0026819 25.7149415,12 25.7766259,12 Z M37.6158853,18.5059673 C37.7687555,18.0098097 38.2957553,17.7322296 38.78789,17.8810769 C39.2840477,18.0326061 39.5629687,18.558265 39.4114395,19.0530816 C38.5518799,21.8677704 35.9530868,23.2905359 32.1125587,23.04648 C32.1018309,23.04648 32.0763526,23.043798 32.0629429,23.0424571 L32.0629429,23.0424571 L32.2868843,23.3347878 C32.4102532,23.484976 32.5309402,23.6351643 32.6462633,23.7866935 C32.9600495,24.1997112 32.8809325,24.7883955 32.4692558,25.1035226 C32.298953,25.2322554 32.097808,25.2952808 31.900686,25.2952808 C31.617742,25.2952808 31.33748,25.167889 31.1524266,24.926515 C31.0451493,24.7857135 30.9351901,24.647594 30.8212079,24.5081335 C30.817185,24.5027696 30.817185,24.4974057 30.8131621,24.4933828 C30.8091392,24.4893599 30.8051163,24.488019 30.8024344,24.4839961 L30.8024344,24.4839961 L30.4403734,24.0092939 C30.4390324,24.007953 30.3572335,23.8993347 30.3572335,23.8979937 C30.1855898,23.6700294 29.9428748,23.3294239 29.7229563,23.0210016 C28.0789314,23.2543298 26.8760844,24.1031616 26.1385528,25.5634741 L26.1385528,25.5634741 L26.9954304,25.1370468 C27.4620868,24.9010367 28.0226108,25.0941359 28.253257,25.5581103 C28.4852442,26.0207437 28.2961679,26.5852906 27.8335345,26.8159369 L27.8335345,26.8159369 L25.0523699,28.2038372 C25.0376193,28.211883 25.0215277,28.2078601 25.006777,28.214565 C24.890113,28.2668627 24.768085,28.3017278 24.6366703,28.3030688 L24.6366703,28.3030688 C24.5468255,28.3030688 24.4583217,28.292341 24.3711589,28.2655217 C24.3161793,28.2494301 24.2746093,28.214565 24.2249936,28.1890866 C24.1847646,28.1703131 24.1485585,28.1542215 24.1110114,28.1287431 C23.9809376,28.0415803 23.8736603,27.9302801 23.8025891,27.7935015 L23.8025891,27.7935015 L23.7932023,27.7841147 L22.4267574,25.0458611 C22.1947702,24.5818866 22.3825055,24.0186807 22.84648,23.7866935 C23.3158182,23.5506834 23.8750013,23.7437826 24.1043066,24.207757 L24.1043066,24.207757 L24.4154108,24.8286245 C25.5337769,22.5959152 27.4768374,21.3421115 29.9415339,21.1168291 C29.9696942,21.1101243 29.9965135,21.1114653 30.0246738,21.1061014 C30.4323276,21.0739182 30.8507092,21.0618495 31.2838414,21.0859869 C31.6056733,21.1047604 31.8685028,21.1356027 32.0562381,21.1557172 L32.0562381,21.1557172 L32.2238589,21.1731497 C35.2101913,21.3582031 37.0178142,20.4610965 37.6158853,18.5059673 Z" fill="#FFFFFF"></path>
                        </g>
                    </g>
                </g>
            </g>
        </g>
    </g>
</svg>