<?xml version="1.0" encoding="UTF-8"?>
<svg width="53px" height="53px" viewBox="0 0 53 53" version="1.1" xmlns="http://www.w3.org/2000/svg" xmlns:xlink="http://www.w3.org/1999/xlink">
    <!-- Generator: Sketch 60 (88103) - https://sketch.com -->
    <title>icon</title>
    <desc>Created with Sketch.</desc>
    <g id="页面-1" stroke="none" stroke-width="1" fill="none" fill-rule="evenodd">
        <g id="(图标)" transform="translate(-785.000000, -756.000000)">
            <g id="产量/出厂水/取水单位电耗/供水单位电耗" transform="translate(380.000000, 736.000000)">
                <g id="出厂水浊度(NTU)" transform="translate(385.000000, 0.000000)">
                    <g id="文案" transform="translate(20.000000, 19.000000)">
                        <g id="icon" transform="translate(0.000000, 1.000000)">
                            <rect id="矩形" fill="#33B5D0" x="0" y="0" width="53" height="53" rx="26.5"></rect>
                            <path d="M28.1367308,34.2881121 C28.5083624,34.2151372 28.8583718,34.4543328 28.9313467,34.8192074 L28.9313467,34.8192074 L29.6421766,38.4057902 C29.7151515,38.7720162 29.4773073,39.1274312 29.1124326,39.2004061 C29.0664855,39.2098658 29.0218897,39.21392 28.9786453,39.21392 C28.663772,39.21392 28.3813319,38.9895896 28.3178167,38.6693108 L28.3178167,38.6693108 L27.6056354,35.082728 C27.5340119,34.7151506 27.7705047,34.361087 28.1367308,34.2881121 Z M27.1219738,14 C27.4949568,14 27.7976676,14.3027108 27.7976676,14.6756938 C27.7976676,15.0486768 27.4949568,15.3513876 27.1219738,15.3513876 L27.1219738,15.3513876 L25.9016708,15.3513876 C25.6327447,15.3513876 25.4138199,15.5730152 25.4138199,15.8446441 L25.4138199,15.8446441 L25.4138199,17.81767 C25.4138199,17.8379408 25.4043601,17.8541575 25.4043601,17.8717255 C25.400306,17.9190241 25.3894949,17.9649713 25.375981,18.0095671 C25.3638185,18.0487573 25.3503046,18.0879476 25.3313852,18.1257864 C25.3111144,18.1636253 25.2881408,18.19741 25.2597617,18.2311946 C25.2327339,18.2649793 25.2057062,18.2974126 25.1746243,18.3244404 C25.1408396,18.3528195 25.1057035,18.3744417 25.0665132,18.3960639 C25.0286744,18.4190375 24.9908355,18.4366056 24.9475911,18.4514708 L24.9475911,18.4514708 L24.8935356,18.4771472 C24.0435128,18.6744498 23.2340316,19.0068911 22.4813087,19.4555518 C22.2664381,19.6190697 21.9880522,19.6379892 21.756965,19.5109587 C21.7353428,19.4987962 21.7177747,19.4825796 21.6961525,19.4690657 C21.6610164,19.4447407 21.6231776,19.4285241 21.5907443,19.3960908 L21.5907443,19.3960908 L20.2258428,17.9784852 C20.1366512,17.8852394 20.0150263,17.8325353 19.8866445,17.8298325 C19.7623168,17.8190214 19.6325836,17.8771311 19.5406893,17.9690254 L19.5406893,17.9690254 L18.1636253,19.3109534 C17.9703768,19.5001476 17.9649713,19.8150209 18.1541656,20.0109721 L18.1541656,20.0109721 L19.5190671,21.4272264 C19.543392,21.4515514 19.5528517,21.4826333 19.5717712,21.5110124 C19.5731226,21.5123638 19.5744739,21.5137152 19.5744739,21.5150666 C19.7312349,21.7393969 19.7352891,22.0258911 19.5893392,22.2542756 C19.5893392,22.255627 19.5893392,22.2569784 19.5879878,22.2583298 C19.0582439,23.0907845 18.678504,23.9962142 18.4595792,24.9489425 C18.4541736,24.9705647 18.4406597,24.9881328 18.4325514,25.009755 C18.4217403,25.0421883 18.4109292,25.0719188 18.3933612,25.1043521 C18.3703876,25.1475965 18.3433598,25.1867867 18.3109265,25.225977 C18.2920071,25.2489506 18.2717363,25.2732755 18.2487627,25.2948978 C18.2082211,25.3313852 18.1649767,25.3570616 18.1190295,25.3827379 C18.0920017,25.3976032 18.0717309,25.4124685 18.0433518,25.4232796 C17.9676741,25.4530101 17.8865908,25.4719295 17.8014534,25.4719295 L17.8014534,25.4719295 L15.8392386,25.4719295 C15.5703124,25.4719295 15.3513876,25.6935571 15.3513876,25.9665374 L15.3513876,25.9665374 L15.3513876,27.8922648 C15.3513876,28.1652451 15.5703124,28.3868726 15.8392386,28.3868726 L15.8392386,28.3868726 L17.8014534,28.3868726 C17.841995,28.3868726 17.8771311,28.4017379 17.9149699,28.4084948 C17.9176727,28.4098462 17.9203755,28.4111976 17.9244297,28.4111976 C18.0068643,28.4274143 18.082542,28.454442 18.1501114,28.4976864 L18.1501114,28.4976864 L18.1744364,28.5139031 C18.232546,28.5544447 18.2825474,28.5990405 18.3257918,28.6544474 C18.3433598,28.6747182 18.3568737,28.6976918 18.3703876,28.7206654 C18.3987667,28.7666126 18.4217403,28.8139111 18.4366056,28.8652639 C18.4433625,28.8855347 18.4568764,28.8990485 18.4622819,28.9206707 C18.6852609,29.8788046 19.0663522,30.7855857 19.5974475,31.6139863 C19.6082586,31.6329057 19.60961,31.6545279 19.6190697,31.6720959 C19.6433947,31.7153403 19.6596114,31.7599361 19.6717739,31.8058833 C19.6812336,31.839668 19.6893419,31.8734527 19.6933961,31.9072374 C19.700153,31.9666984 19.6974502,32.0221053 19.6893419,32.0815664 C19.6852877,32.10454 19.682585,32.1248108 19.6771794,32.1491358 C19.6609628,32.2153538 19.633935,32.2748148 19.5974475,32.3342759 C19.5893392,32.3477898 19.5812309,32.3613036 19.5704198,32.3761689 C19.5515004,32.4018453 19.543392,32.4329272 19.5190671,32.4559008 L19.5190671,32.4559008 L18.1541656,33.8735064 C17.9649713,34.070809 17.9703768,34.3843309 18.1649767,34.5762279 L18.1649767,34.5762279 L19.5406893,35.9154531 C19.633935,36.0059961 19.6879905,36.0424835 19.8852931,36.0532946 C20.0136749,36.0505918 20.1352998,35.9978877 20.2258428,35.904642 L20.2258428,35.904642 L21.5907443,34.4883877 C21.5934471,34.485685 21.5975012,34.4843336 21.600204,34.4816308 C21.6583137,34.4235211 21.7245317,34.3789254 21.798858,34.3451407 C21.8069663,34.3424379 21.816426,34.3370323 21.8258857,34.3329782 C21.8934551,34.3059504 21.9610245,34.2937879 22.0312966,34.2897338 C22.0515675,34.2883824 22.0718383,34.287031 22.0921091,34.287031 C22.1488674,34.2883824 22.2042743,34.3005449 22.2610325,34.3154101 C22.2948172,34.3262212 22.3272505,34.3370323 22.3596838,34.3518976 C22.3786033,34.3613573 22.4002255,34.3613573 22.4191449,34.3721684 C23.1894358,34.8383971 24.0218906,35.1789468 24.8935356,35.3830064 C24.9111037,35.3870605 24.9246175,35.4005744 24.9421856,35.4059799 C24.9894841,35.4221966 25.0300258,35.4397646 25.0705674,35.465441 C25.1070549,35.4857118 25.1408396,35.5059826 25.1719215,35.5330104 C25.2057062,35.5613895 25.2340853,35.5951742 25.2611131,35.6303103 C25.2881408,35.6613922 25.3111144,35.6951769 25.3313852,35.7316644 C25.3503046,35.7695032 25.3638185,35.8113962 25.375981,35.8532892 C25.3894949,35.8965337 25.3989546,35.9370753 25.4030088,35.9830225 C25.4043601,36.0019419 25.4138199,36.0208613 25.4138199,36.0411321 L25.4138199,36.0411321 L25.4138199,37.7763138 C25.4138199,38.1492968 25.1124604,38.4520076 24.7381261,38.4520076 C24.3651431,38.4520076 24.0624322,38.1492968 24.0624322,37.7763138 L24.0624322,37.7763138 L24.0624322,36.5316858 C23.4259287,36.343843 22.8123987,36.0951876 22.2218423,35.7803143 L22.2218423,35.7803143 L21.2001933,36.8411536 C20.8569408,37.1979199 20.397469,37.3979253 19.9055639,37.4046822 L19.9055639,37.4046822 L19.8771848,37.4046822 C19.3960908,37.4046822 18.9420245,37.2208935 18.5960693,36.8830466 L18.5960693,36.8830466 L17.2217081,35.5438215 C16.4960129,34.8329916 16.4770935,33.6640413 17.1825179,32.9356434 L17.1825179,32.9356434 L18.2095724,31.8680471 C17.8271297,31.1937047 17.5271217,30.4815234 17.3108997,29.7382603 L17.3108997,29.7382603 L15.8392386,29.7382603 C14.8243464,29.7382603 14,28.9098596 14,27.8922648 L14,27.8922648 L14,25.9665374 C14,24.9489425 14.8243464,24.1205419 15.8392386,24.1205419 L15.8392386,24.1205419 L17.3108997,24.1205419 C17.5244189,23.3840357 17.8203728,22.6786113 18.1987613,22.0056203 L18.1987613,22.0056203 L17.1811665,20.9488352 C16.4770935,20.2190858 16.4960129,19.0487842 17.2217081,18.3420084 L17.2217081,18.3420084 L18.5974207,17.0000805 C18.9501329,16.6568281 19.410956,16.4122269 19.9069153,16.4797963 C20.3988204,16.4879046 20.8582922,16.6865586 21.2001933,17.0419735 L21.2001933,17.0419735 L22.2042743,18.0865962 C22.8002362,17.7690201 23.4191717,17.5163106 24.0624322,17.3257649 L24.0624322,17.3257649 L24.0624322,15.8446441 C24.0624322,14.8270492 24.8881301,14 25.9016708,14 L25.9016708,14 Z M31.241679,32.9938882 C31.5646606,32.8168564 31.9781852,32.9290216 32.1606226,33.2574088 L32.1606226,33.2574088 L34.1201346,36.7885846 C34.3012206,37.114269 34.1836498,37.5250909 33.856614,37.7075282 C33.7539086,37.7642865 33.6417434,37.7913142 33.5295782,37.7913142 C33.291734,37.7913142 33.0619981,37.6669866 32.9376705,37.4440076 L32.9376705,37.4440076 L30.9781584,33.9114804 C30.7970725,33.585796 30.9146432,33.1749741 31.241679,32.9938882 Z M33.6098507,30.863831 C33.8368838,30.5624716 34.2625709,30.5084161 34.555822,30.7354492 L34.555822,30.7354492 L37.7342857,33.1571358 C38.0302396,33.3828175 38.0883492,33.8058019 37.8613161,34.1031071 C37.7288801,34.2787875 37.5275234,34.3693305 37.3248152,34.3693305 C37.1802168,34.3693305 37.0369697,34.3247347 36.9153448,34.231489 L36.9153448,34.231489 L33.7382325,31.8098023 C33.4409272,31.5841206 33.3828175,31.1597849 33.6098507,30.863831 Z M26.8591289,20.6981528 C27.4307659,20.6981528 28.0010515,20.7765332 28.5524176,20.9332942 C28.9118867,21.0346483 29.1213518,21.4076313 29.0199977,21.7671004 C28.9186437,22.1252181 28.5389037,22.330629 28.1861916,22.2333291 C27.7523961,22.1117042 27.3064382,22.0495404 26.8591289,22.0495404 C24.1860842,22.0495404 22.0103501,24.2387883 22.0103501,26.9294011 C22.0103501,29.6200138 24.1860842,31.8092618 26.8591289,31.8092618 C29.5321736,31.8092618 31.7065563,29.6200138 31.7065563,26.9294011 C31.7065563,26.6253389 31.6781772,26.3212767 31.6227703,26.0199172 C31.5552009,25.6536912 31.7970993,25.300979 32.1646767,25.2334096 C32.5227945,25.168543 32.8836149,25.4063872 32.9511843,25.7753161 C33.0228079,26.1564074 33.057944,26.5442556 33.057944,26.9294011 C33.057944,30.3659798 30.2767882,33.1606494 26.8591289,33.1606494 C23.4414696,33.1606494 20.6589625,30.3659798 20.6589625,26.9294011 C20.6589625,23.4928224 23.4414696,20.6981528 26.8591289,20.6981528 Z M34.4843336,27.4136033 C34.5856877,27.0541342 34.9559679,26.8433177 35.3194911,26.9500773 L35.3194911,26.9500773 L39.5101442,28.1474067 C39.8696133,28.2487608 40.0763756,28.6244466 39.9736701,28.9825643 C39.8885327,29.2798696 39.6182552,29.4717666 39.3236527,29.4717666 C39.2628402,29.4717666 39.2006764,29.4650097 39.1385126,29.4460903 L39.1385126,29.4460903 L34.9478595,28.2487608 C34.5883904,28.1474067 34.3816281,27.7730724 34.4843336,27.4136033 Z M33.3351136,19.9620519 C33.6053911,19.707991 34.033781,19.7174508 34.2905446,19.9890797 C34.5459569,20.2593572 34.5351458,20.6877471 34.2635168,20.9445107 L34.2635168,20.9445107 L29.1052703,25.8365339 C29.2660854,26.1676239 29.3647367,26.5365527 29.3647367,26.9298065 C29.3647367,28.3163302 28.2403822,29.4447389 26.8592641,29.4447389 C25.4781459,29.4447389 24.3537914,28.3163302 24.3537914,26.9298065 C24.3537914,25.5419314 25.4781459,24.4135227 26.8592641,24.4135227 C27.3592775,24.4135227 27.8228034,24.5662295 28.2133545,24.818939 L28.2133545,24.818939 Z M26.8592641,25.7649104 C26.2227605,25.7649104 25.705179,26.2878974 25.705179,26.9298065 C25.705179,27.5703642 26.2227605,28.0933512 26.8592641,28.0933512 C27.4957676,28.0933512 28.0133491,27.5703642 28.0133491,26.9298065 C28.0133491,26.2878974 27.4957676,25.7649104 26.8592641,25.7649104 Z M33.9333729,23.1626784 C34.2752739,23.022134 34.6739333,23.1775436 34.8185317,23.5234989 C34.9496163,23.834318 35.0644843,24.1559483 35.1604328,24.4843355 C35.2644897,24.8411018 35.0590787,25.2167875 34.6996096,25.3221958 C34.6360944,25.3397638 34.5725792,25.3478721 34.5104154,25.3478721 C34.2185156,25.3478721 33.9482381,25.1573265 33.8617493,24.8613726 C33.7806661,24.5829868 33.6847175,24.3127092 33.5725524,24.0478373 C33.4279539,23.7059362 33.588769,23.3086282 33.9333729,23.1626784 Z M30.7553146,14.6533959 C30.7904507,14.6520445 30.8282895,14.664207 30.8634256,14.6682612 C30.9107242,14.6736667 30.9580227,14.670964 31.0053213,14.6871806 C31.0120782,14.688532 31.0174838,14.6925862 31.0228893,14.6939375 C31.0242407,14.6952889 31.0255921,14.6952889 31.0269435,14.6952889 L31.0269435,14.6952889 C35.1621896,16.1223543 38.2622728,19.5075803 39.3285177,23.7617485 C39.4177092,24.1239204 39.1987844,24.4901464 38.8352612,24.5820408 C38.7812057,24.5942033 38.7257988,24.6009602 38.6717433,24.6009602 C38.3690324,24.6009602 38.0933494,24.3969007 38.0163203,24.0887843 C37.1149447,20.4859849 34.5702818,17.5980695 31.1701906,16.2142486 L31.1701906,16.2142486 L30.1417846,18.9143211 C30.359358,19.0048641 30.5863911,19.077839 30.7945048,19.18595 C31.1255948,19.3562248 31.2566794,19.7643439 31.0850532,20.0954339 C30.9647797,20.3278725 30.7282868,20.4616599 30.4850371,20.4616599 C30.3782774,20.4616599 30.2728692,20.4373349 30.1742179,20.3859822 C29.8215057,20.2035449 29.4512255,20.0494867 29.072837,19.9292132 C29.0660801,19.9278618 29.0620259,19.9211049 29.055269,19.9197535 C29.048512,19.9184021 29.0431065,19.9184021 29.0363495,19.9170507 C29.0012134,19.9035368 28.9768885,19.8765091 28.9458066,19.8602924 C28.9039135,19.8346161 28.8593177,19.8143452 28.8255331,19.7832633 C28.7930998,19.7535328 28.7714776,19.7170453 28.7458012,19.6832606 C28.7201248,19.6481246 28.6890429,19.6170427 28.6714749,19.5778524 C28.6525554,19.5400136 28.6471499,19.4994719 28.6363388,19.4602817 C28.6255277,19.4156859 28.609311,19.3737929 28.6052569,19.3278457 C28.6039055,19.2873041 28.6147166,19.2467624 28.6201221,19.2048694 C28.6241763,19.1643278 28.6201221,19.1237862 28.633636,19.0805418 C28.6349874,19.0751362 28.640393,19.0697307 28.6430957,19.0629737 C28.6444471,19.0575682 28.6430957,19.0508112 28.6457985,19.0454057 L28.6457985,19.0454057 L30.1552985,15.08584 C30.1701637,15.0466497 30.1998943,15.0182706 30.2201651,14.9817831 C30.2444901,14.9452956 30.2620581,14.9034026 30.2917886,14.8696179 C30.3228705,14.8358332 30.3634122,14.8128597 30.3998996,14.7871833 C30.4350357,14.7628583 30.4634149,14.7344792 30.5012537,14.7155597 C30.5350384,14.7006945 30.5715259,14.6966403 30.6080133,14.6871806 C30.6566633,14.6736667 30.7039619,14.6560987 30.7553146,14.6533959 Z" fill="#FFFFFF"></path>
                        </g>
                    </g>
                </g>
            </g>
        </g>
    </g>
</svg>