<?xml version="1.0" encoding="UTF-8"?>
<svg width="54px" height="54px" viewBox="0 0 54 54" version="1.1" xmlns="http://www.w3.org/2000/svg" xmlns:xlink="http://www.w3.org/1999/xlink">
    <!-- Generator: Sketch 60 (88103) - https://sketch.com -->
    <title>icon</title>
    <desc>Created with Sketch.</desc>
    <g id="页面-1" stroke="none" stroke-width="1" fill="none" fill-rule="evenodd">
        <g id="导航-未展开(白色)" transform="translate(-1555.000000, -444.000000)">
            <g id="2" transform="translate(380.000000, 426.000000)">
                <g id="爆管次数" transform="translate(1155.000000, 0.000000)">
                    <g id="icon" transform="translate(20.000000, 18.000000)">
                        <circle id="椭圆形" fill="#FFBB0A" cx="27" cy="27" r="27"></circle>
                        <path d="M37.3160377,17.3207547 C38.6507547,17.3207547 39.7358491,18.4071226 39.7358491,19.740566 L39.7358491,19.740566 L39.7358491,34.5141509 C39.7358491,35.8488679 38.6507547,36.9339623 37.3160377,36.9339623 C35.9825943,36.9339623 34.8962264,35.8488679 34.8962264,34.5141509 L34.8962264,34.5141509 L34.8962264,34.3867925 L20.1226415,34.3867925 L20.1226415,34.5141509 C20.1226415,35.8488679 19.0375472,36.9339623 17.7028302,36.9339623 C16.3693868,36.9339623 15.2830189,35.8488679 15.2830189,34.5141509 L15.2830189,34.5141509 L15.2830189,19.740566 C15.2830189,18.4071226 16.3693868,17.3207547 17.7028302,17.3207547 C19.0375472,17.3207547 20.1226415,18.4071226 20.1226415,19.740566 L20.1226415,19.740566 L20.1226415,19.8679245 L34.8962264,19.8679245 L34.8962264,19.740566 C34.8962264,18.4071226 35.9825943,17.3207547 37.3160377,17.3207547 Z M37.3160377,19.1037736 C36.9658019,19.1037736 36.6792453,19.3903302 36.6792453,19.740566 L36.6792453,19.740566 L36.6792453,20.759434 C36.6792453,21.2523113 36.2806132,21.6509434 35.7877358,21.6509434 L35.7877358,21.6509434 L19.2311321,21.6509434 C18.7395283,21.6509434 18.3396226,21.2523113 18.3396226,20.759434 L18.3396226,20.759434 L18.3396226,19.740566 C18.3396226,19.3903302 18.0543396,19.1037736 17.7028302,19.1037736 C17.3525943,19.1037736 17.0673113,19.3903302 17.0673113,19.740566 L17.0673113,19.740566 L17.0673113,34.5141509 C17.0673113,34.8643868 17.3525943,35.1509434 17.7028302,35.1509434 C18.0543396,35.1509434 18.3396226,34.8643868 18.3396226,34.5141509 L18.3396226,34.5141509 L18.3396226,33.495283 C18.3396226,33.0024057 18.7395283,32.6037736 19.2311321,32.6037736 L19.2311321,32.6037736 L35.7877358,32.6037736 C36.2806132,32.6037736 36.6792453,33.0024057 36.6792453,33.495283 L36.6792453,33.495283 L36.6792453,34.5141509 C36.6792453,34.8643868 36.9658019,35.1509434 37.3160377,35.1509434 C37.6675472,35.1509434 37.9528302,34.8643868 37.9528302,34.5141509 L37.9528302,34.5141509 L37.9528302,19.740566 C37.9528302,19.3903302 37.6675472,19.1037736 37.3160377,19.1037736 Z M34.6202406,23.6886792 C35.1131179,23.6886792 35.51175,24.0873113 35.51175,24.5801887 C35.51175,25.073066 35.1131179,25.4716981 34.6202406,25.4716981 L34.6202406,25.4716981 L27.509816,25.4716981 C27.0169387,25.4716981 26.6183066,25.073066 26.6183066,24.5801887 C26.6183066,24.0873113 27.0169387,23.6886792 27.509816,23.6886792 L27.509816,23.6886792 Z" id="形状结合" fill="#FFFFFF"></path>
                    </g>
                </g>
            </g>
        </g>
    </g>
</svg>