<?xml version="1.0" encoding="UTF-8"?>
<svg width="53px" height="53px" viewBox="0 0 53 53" version="1.1" xmlns="http://www.w3.org/2000/svg" xmlns:xlink="http://www.w3.org/1999/xlink">
    <!-- Generator: Sketch 60 (88103) - https://sketch.com -->
    <title>icon</title>
    <desc>Created with Sketch.</desc>
    <g id="页面-1" stroke="none" stroke-width="1" fill="none" fill-rule="evenodd">
        <g id="(图标)" transform="translate(-785.000000, -369.000000)">
            <g id="产量/出厂水/取水单位电耗/供水单位电耗" transform="translate(380.000000, 349.000000)">
                <g id="爆管率(%)" transform="translate(385.000000, 0.000000)">
                    <g id="文案" transform="translate(20.000000, 19.000000)">
                        <g id="icon" transform="translate(0.000000, 1.000000)">
                            <circle id="椭圆形" fill="#F85454" cx="26.5" cy="26.5" r="26.5"></circle>
                            <path d="M36.625,17 C37.935,17 39,18.06625 39,19.375 L39,19.375 L39,33.875 C39,35.185 37.935,36.25 36.625,36.25 C35.31625,36.25 34.25,35.185 34.25,33.875 L34.25,33.875 L34.25,33.75 L19.75,33.75 L19.75,33.875 C19.75,35.185 18.685,36.25 17.375,36.25 C16.06625,36.25 15,35.185 15,33.875 L15,33.875 L15,19.375 C15,18.06625 16.06625,17 17.375,17 C18.685,17 19.75,18.06625 19.75,19.375 L19.75,19.375 L19.75,19.5 L34.25,19.5 L34.25,19.375 C34.25,18.06625 35.31625,17 36.625,17 Z M36.625,18.75 C36.28125,18.75 36,19.03125 36,19.375 L36,19.375 L36,20.375 C36,20.85875 35.60875,21.25 35.125,21.25 L35.125,21.25 L18.875,21.25 C18.3925,21.25 18,20.85875 18,20.375 L18,20.375 L18,19.375 C18,19.03125 17.72,18.75 17.375,18.75 C17.03125,18.75 16.75125,19.03125 16.75125,19.375 L16.75125,19.375 L16.75125,33.875 C16.75125,34.21875 17.03125,34.5 17.375,34.5 C17.72,34.5 18,34.21875 18,33.875 L18,33.875 L18,32.875 C18,32.39125 18.3925,32 18.875,32 L18.875,32 L35.125,32 C35.60875,32 36,32.39125 36,32.875 L36,32.875 L36,33.875 C36,34.21875 36.28125,34.5 36.625,34.5 C36.97,34.5 37.25,34.21875 37.25,33.875 L37.25,33.875 L37.25,19.375 C37.25,19.03125 36.97,18.75 36.625,18.75 Z M33.979125,23.25 C34.462875,23.25 34.854125,23.64125 34.854125,24.125 C34.854125,24.60875 34.462875,25 33.979125,25 L33.979125,25 L27.000375,25 C26.516625,25 26.125375,24.60875 26.125375,24.125 C26.125375,23.64125 26.516625,23.25 27.000375,23.25 L27.000375,23.25 Z" id="形状结合" fill="#FFFFFF"></path>
                        </g>
                    </g>
                </g>
            </g>
        </g>
    </g>
</svg>