<?xml version="1.0" encoding="UTF-8"?>
<svg width="53px" height="53px" viewBox="0 0 53 53" version="1.1" xmlns="http://www.w3.org/2000/svg" xmlns:xlink="http://www.w3.org/1999/xlink">
    <!-- Generator: Sketch 60 (88103) - https://sketch.com -->
    <title>icon</title>
    <desc>Created with Sketch.</desc>
    <g id="页面-1" stroke="none" stroke-width="1" fill="none" fill-rule="evenodd">
        <g id="(图标)" transform="translate(-1170.000000, -369.000000)">
            <g id="产量/出厂水/取水单位电耗/供水单位电耗" transform="translate(380.000000, 349.000000)">
                <g id="压力合格率(%)" transform="translate(770.000000, 0.000000)">
                    <g id="文案" transform="translate(20.000000, 19.000000)">
                        <g id="icon" transform="translate(0.000000, 1.000000)">
                            <rect id="矩形" fill="#078AF4" x="0" y="0" width="53" height="53" rx="26.5"></rect>
                            <path d="M27,14 C33.6173196,14 39,19.3839175 39,26 C39,32.6173196 33.6173196,38 27,38 C20.3826804,38 15,32.6173196 15,26 C15,19.3839175 20.3826804,14 27,14 Z M27,15.7319588 C21.337732,15.7319588 16.7319588,20.3389691 16.7319588,26 C16.7319588,31.6610309 21.337732,36.2680412 27,36.2680412 C32.662268,36.2680412 37.2680412,31.6610309 37.2680412,26 C37.2680412,20.3389691 32.662268,15.7319588 27,15.7319588 Z M31.3420645,19.8041131 C31.6822707,19.4676182 32.2303119,19.4676182 32.5668068,19.8053502 C32.9045387,20.1443192 32.9045387,20.6923605 32.5655697,21.0300924 L32.5655697,21.0300924 L30.5505155,23.1472165 C31.1826804,23.9327835 31.5773196,24.9162887 31.5773196,26 C31.5773196,28.5237113 29.5237113,30.5773196 27,30.5773196 C24.4762887,30.5773196 22.4226804,28.5237113 22.4226804,26 C22.4226804,23.4762887 24.4762887,21.4226804 27,21.4226804 C27.8115464,21.4226804 28.5624742,21.6527835 29.2230928,22.0239175 L29.2230928,22.0239175 Z M27,23.1546392 C25.4313402,23.1546392 24.1546392,24.4313402 24.1546392,26 C24.1546392,27.5698969 25.4313402,28.8453608 27,28.8453608 C28.5686598,28.8453608 29.8453608,27.5698969 29.8453608,26 C29.8453608,24.4313402 28.5686598,23.1546392 27,23.1546392 Z" id="合并形状" stroke="#FFFFFF" stroke-width="0.4" fill="#FFFFFF"></path>
                        </g>
                    </g>
                </g>
            </g>
        </g>
    </g>
</svg>