<?xml version="1.0" encoding="UTF-8"?>
<svg width="54px" height="54px" viewBox="0 0 54 54" version="1.1" xmlns="http://www.w3.org/2000/svg" xmlns:xlink="http://www.w3.org/1999/xlink">
    <!-- Generator: Sketch 60 (88103) - https://sketch.com -->
    <title>icon</title>
    <desc>Created with Sketch.</desc>
    <g id="页面-1" stroke="none" stroke-width="1" fill="none" fill-rule="evenodd">
        <g id="导航-未展开(白色)" transform="translate(-400.000000, -944.000000)">
            <g id="3" transform="translate(380.000000, 766.000000)">
                <g id="水质合格率" transform="translate(0.000000, 160.000000)">
                    <g id="icon" transform="translate(20.000000, 18.000000)">
                        <rect id="矩形" fill="#33B5D0" x="0" y="0" width="54" height="54" rx="26.5"></rect>
                        <path d="M26.7336023,14.2641509 C26.7848437,14.2641509 26.8323358,14.2703999 26.8835772,14.2803982 C26.9273199,14.2903966 26.9698127,14.3003949 27.0135554,14.3178919 C27.0610475,14.3366388 27.1035404,14.3641342 27.147283,14.3928794 C27.1722789,14.4103765 27.2022738,14.4166254 27.2260199,14.4366221 C27.2410174,14.44912 27.2472663,14.4678668 27.261014,14.4816145 C27.2747617,14.4953622 27.2935086,14.5016112 27.3060065,14.5178585 C30.0218019,17.6785794 34.8772392,18.6771623 37.5305451,18.9908598 C37.566789,18.995859 37.596784,19.0146058 37.6317782,19.0233544 C37.68052,19.0371021 37.728012,19.0483502 37.7717547,19.0695966 C37.8154974,19.0920928 37.8517413,19.1195882 37.8904849,19.1495832 C37.9279786,19.1783284 37.9654723,19.2070736 37.9979669,19.2420677 C38.0292116,19.2770619 38.0517079,19.318305 38.0767037,19.3595481 C38.1016995,19.4007912 38.1254455,19.4395347 38.1416928,19.485777 C38.1579401,19.5320192 38.1629393,19.5807611 38.170438,19.6307527 C38.176687,19.6657468 38.1916844,19.6969916 38.1916844,19.7357351 L38.1916844,19.7357351 L38.1916844,29.737811 L38.1916844,29.737811 L38.1854355,29.7715553 C38.1841857,29.7828034 38.1904346,29.791552 38.1891849,29.8028001 C37.7217631,35.1993968 32.643863,38.1251571 29.214437,40.067332 C29.1956902,40.0823295 29.1831923,40.103576 29.160696,40.1173237 C28.4645626,40.5422525 27.6871927,40.754717 26.8723291,40.754717 C26.1349525,40.754717 25.3663311,40.5797463 24.5989596,40.2298048 L24.5989596,40.2298048 L24.6039587,40.2173069 C24.5514675,40.2023094 24.4964767,40.2035592 24.4477349,40.1760638 C21.1982788,38.3363718 15.760439,35.2568872 15.2867682,29.8028001 C15.2855184,29.791552 15.2905176,29.7828034 15.2905176,29.7715553 C15.2892678,29.7590574 15.2830189,29.7503089 15.2830189,29.737811 L15.2830189,29.737811 L15.2830189,19.7357351 C15.2830189,19.6969916 15.2992661,19.6657468 15.3042653,19.6307527 C15.3117641,19.5807611 15.3167632,19.5320192 15.3330105,19.485777 C15.3492578,19.4395347 15.3742536,19.4007912 15.3992494,19.3595481 L15.4362745,19.2984646 L15.4362745,19.2984646 L15.4779862,19.2420677 C15.5104808,19.2070736 15.5479745,19.1783284 15.5854682,19.1495832 C15.6242118,19.1195882 15.6604557,19.0920928 15.7041984,19.0695966 C15.747941,19.0483502 15.7954331,19.0371021 15.8441749,19.0233544 C15.8791691,19.0146058 15.9091641,18.995859 15.945408,18.9908598 C18.5987139,18.6771623 23.4541512,17.6785794 26.1686968,14.5178585 C26.1811947,14.502861 26.1999416,14.496612 26.2124395,14.4828643 L26.2124395,14.4828643 L26.2486834,14.4366221 C26.2749291,14.4153756 26.3061738,14.4078769 26.3336692,14.38913 C26.3736625,14.3628844 26.4136558,14.3366388 26.4573985,14.3203915 C26.5048906,14.2991451 26.5523826,14.287897 26.603624,14.2791484 C26.6473667,14.2703999 26.6898596,14.2641509 26.7336023,14.2641509 Z M26.7373517,16.0538514 C23.8715813,18.9083736 19.5610528,19.9906924 16.7827678,20.3868761 L16.7827678,20.3868761 L16.7827678,29.6953181 C17.1677034,33.9783512 21.1245411,36.5691676 25.1551165,38.8512856 C25.1751131,38.8587843 25.2013587,38.8562847 25.2213554,38.8650333 C25.8737462,39.1637333 27.1360349,39.5474191 28.3170872,38.8662831 C28.3358341,38.8537852 28.3470822,38.8350383 28.3670789,38.8237902 C32.3701588,36.5591692 36.3069999,33.9870997 36.6919355,29.6953181 L36.6919355,29.6953181 L36.6919355,20.3868761 C33.9136505,19.9906924 29.6043718,18.9083736 26.7373517,16.0538514 Z M27.8756611,22.5180194 C28.0281356,22.1318341 28.4655624,21.9443654 28.8479984,22.0943403 C29.2341837,22.245565 29.4229021,22.681742 29.2716775,23.0666776 L29.2716775,23.0666776 L25.5185557,32.6225781 C25.4035749,32.9175288 25.1198724,33.0987484 24.8211724,33.0987484 C24.7299377,33.0987484 24.6362033,33.0812514 24.5474682,33.0462572 C24.1612828,32.8950325 23.9713146,32.4588555 24.1225393,32.0726702 L24.1225393,32.0726702 Z M30.4174857,27.2349799 C31.5772916,27.2349799 32.5208836,28.178572 32.5208836,29.3383778 L32.5208836,29.3383778 L32.5208836,30.9931009 C32.5208836,32.1541565 31.5772916,33.0977486 30.4174857,33.0977486 C29.25643,33.0977486 28.312838,32.1541565 28.312838,30.9931009 L28.312838,30.9931009 L28.312838,29.3383778 C28.312838,28.178572 29.25643,27.2349799 30.4174857,27.2349799 Z M30.4174857,28.7334791 C30.0837915,28.7334791 29.8125869,29.0046837 29.8125869,29.3383778 L29.8125869,29.3383778 L29.8125869,30.9931009 C29.8125869,31.326795 30.0837915,31.5979996 30.4174857,31.5979996 C30.74993,31.5979996 31.0211346,31.326795 31.0211346,30.9931009 L31.0211346,30.9931009 L31.0211346,29.3383778 C31.0211346,29.0046837 30.74993,28.7334791 30.4174857,28.7334791 Z M23.0590923,22.0624707 C24.220148,22.0624707 25.16374,23.0060627 25.16374,24.1658686 L25.16374,24.1658686 L25.16374,25.8205916 C25.16374,26.9816473 24.220148,27.9252394 23.0590923,27.9252394 C21.8992864,27.9252394 20.9556944,26.9816473 20.9556944,25.8205916 L20.9556944,25.8205916 L20.9556944,24.1658686 C20.9556944,23.0060627 21.8992864,22.0624707 23.0590923,22.0624707 Z M23.0590923,23.5609699 C22.726648,23.5609699 22.4554434,23.8321745 22.4554434,24.1658686 L22.4554434,24.1658686 L22.4554434,25.8205916 C22.4554434,26.1542858 22.726648,26.4254904 23.0590923,26.4254904 C23.3927865,26.4254904 23.6639911,26.1542858 23.6639911,25.8205916 L23.6639911,25.8205916 L23.6639911,24.1658686 C23.6639911,23.8321745 23.3927865,23.5609699 23.0590923,23.5609699 Z" id="形状结合" fill="#FFFFFF"></path>
                    </g>
                </g>
            </g>
        </g>
    </g>
</svg>