<?xml version="1.0" encoding="UTF-8"?>
<svg width="54px" height="54px" viewBox="0 0 54 54" version="1.1" xmlns="http://www.w3.org/2000/svg" xmlns:xlink="http://www.w3.org/1999/xlink">
    <!-- Generator: Sketch 60 (88103) - https://sketch.com -->
    <title>icon</title>
    <desc>Created with Sketch.</desc>
    <g id="页面-1" stroke="none" stroke-width="1" fill="none" fill-rule="evenodd">
        <g id="导航-未展开(白色)" transform="translate(-1555.000000, -784.000000)">
            <g id="3" transform="translate(380.000000, 766.000000)">
                <g id="收费水量" transform="translate(1155.000000, 0.000000)">
                    <g id="icon" transform="translate(20.000000, 18.000000)">
                        <rect id="矩形" fill="#F85454" x="0" y="0" width="54" height="54" rx="26.5"></rect>
                        <path d="M34.7860814,15.2830189 C36.0872294,15.2830189 37.146423,16.3447865 37.146423,17.6485084 C37.146423,19.6176048 36.3922463,21.1066534 35.0717934,21.9161708 C37.869712,23.1092115 39.6972393,25.9804886 39.6972393,29.6007944 L39.6972393,29.6007944 L39.6972393,30.4862443 C39.6972393,35.5865899 35.5582761,39.7358491 30.4708004,39.7358491 L30.4708004,39.7358491 L24.5249017,39.7358491 C19.4297041,39.7358491 15.2830189,35.5801549 15.2830189,30.4708004 L15.2830189,30.4708004 L15.2830189,29.6007944 C15.2830189,25.9804886 17.1118332,23.1092115 19.9084647,21.9161708 C18.5892989,21.1066534 17.8338352,19.6176048 17.8338352,17.6485084 C17.8338352,16.3447865 18.8930288,15.2830189 20.1954638,15.2830189 L20.1954638,15.2830189 Z M34.7860814,16.5700099 L20.1954638,16.5700099 C19.6034479,16.5700099 19.1208262,17.0539186 19.1208262,17.6485084 C19.1208262,19.9805362 20.3820775,21.316433 22.5802582,21.316433 L22.5802582,21.316433 L22.9238848,21.316433 C23.2803813,21.316433 23.5673803,21.604719 23.5673803,21.9599285 C23.5673803,22.316425 23.2803813,22.603424 22.9238848,22.603424 C19.2418034,22.603424 16.5700099,25.5467726 16.5700099,29.6007944 L16.5700099,29.6007944 L16.5700099,30.4708004 C16.5700099,34.8697358 20.1388361,38.448858 24.5249017,38.448858 L24.5249017,38.448858 L30.4708004,38.448858 C34.847857,38.448858 38.4102483,34.8774578 38.4102483,30.4862443 L38.4102483,30.4862443 L38.4102483,29.6007944 C38.4102483,25.5467726 35.7384548,22.603424 32.0563734,22.603424 C31.7011639,22.603424 31.4128779,22.316425 31.4128779,21.9599285 C31.4128779,21.604719 31.7011639,21.316433 32.0563734,21.316433 L32.0563734,21.316433 L32.4,21.316433 C34.5994677,21.316433 35.859432,19.9805362 35.859432,17.6485084 C35.859432,17.0539186 35.3780973,16.5700099 34.7860814,16.5700099 L34.7860814,16.5700099 Z M29.8974459,25.4869275 C30.1097994,25.2025025 30.5126276,25.1433009 30.7983396,25.3530804 C31.0827646,25.565434 31.1432532,25.9682622 30.9321867,26.2539742 L30.9321867,26.2539742 L28.7687547,29.1728699 L30.6915194,29.1728699 C31.0467289,29.1728699 31.3350149,29.4611559 31.3350149,29.8163654 C31.3350149,30.171575 31.0467289,30.459861 30.6915194,30.459861 L30.6915194,30.459861 L28.1342681,30.459861 L28.1342681,33.9501807 C28.1342681,34.3066773 27.8459821,34.5936763 27.4907726,34.5936763 C27.1342761,34.5936763 26.8472771,34.3066773 26.8472771,33.9501807 L26.8472771,33.9501807 L26.8472771,30.459861 L24.2887388,30.459861 C23.9335293,30.459861 23.6452433,30.171575 23.6452433,29.8163654 C23.6452433,29.4611559 23.9335293,29.1728699 24.2887388,29.1728699 L24.2887388,29.1728699 L26.2127905,29.1728699 L24.0493585,26.2539742 C23.838292,25.9682622 23.8987805,25.565434 24.1832056,25.3530804 C24.4714916,25.1420139 24.8730328,25.2025025 25.0840993,25.4869275 L25.0840993,25.4869275 L27.4907726,28.7352929 Z" stroke="#FFFFFF" stroke-width="0.4" fill="#FFFFFF"></path>
                    </g>
                </g>
            </g>
        </g>
    </g>
</svg>