<?xml version="1.0" encoding="UTF-8"?>
<svg width="53px" height="53px" viewBox="0 0 53 53" version="1.1" xmlns="http://www.w3.org/2000/svg" xmlns:xlink="http://www.w3.org/1999/xlink">
    <!-- Generator: Sketch 60 (88103) - https://sketch.com -->
    <title>icon</title>
    <desc>Created with Sketch.</desc>
    <g id="页面-1" stroke="none" stroke-width="1" fill="none" fill-rule="evenodd">
        <g id="主题分析-客服管理" transform="translate(-785.000000, -176.000000)">
            <g id="产量/出厂水/取水单位电耗/供水单位电耗" transform="translate(360.000000, 156.000000)">
                <g id="投诉处理及时率(%)" transform="translate(405.000000, 0.000000)">
                    <g id="文案" transform="translate(20.000000, 19.000000)">
                        <g id="icon" transform="translate(0.000000, 1.000000)">
                            <rect id="矩形" fill="#FFBB0A" x="0" y="0" width="53" height="53" rx="26.5"></rect>
                            <path d="M32.7894737,15 C32.8185263,15 32.8437895,15.0126316 32.8728421,15.0164211 C32.8993684,15.0202105 32.9233684,15.0252632 32.9498947,15.0315789 C33.056,15.0606316 33.1570526,15.1061053 33.2353684,15.1844211 L33.2353684,15.1844211 L38.288,20.2370526 C38.3675789,20.3166316 38.4130526,20.4176842 38.4408421,20.5237895 C38.4484211,20.5515789 38.4534737,20.5755789 38.4572632,20.6033684 C38.4610526,20.6311579 38.4736842,20.6564211 38.4736842,20.6842105 L38.4736842,20.6842105 L38.4736842,36.3498947 C38.4736842,37.8113684 37.2837895,39 35.8223158,39 L35.8223158,39 L19.6501053,39 C18.1886316,39 17,37.8113684 17,36.3498947 L17,36.3498947 L17,17.6501053 C17,16.1886316 18.1886316,15 19.6501053,15 L19.6501053,15 Z M32.1578947,16.2631579 L19.6501053,16.2631579 C18.8846316,16.2631579 18.2631579,16.8858947 18.2631579,17.6501053 L18.2631579,17.6501053 L18.2631579,36.3498947 C18.2631579,37.1141053 18.8846316,37.7368421 19.6501053,37.7368421 L19.6501053,37.7368421 L35.8223158,37.7368421 C36.5877895,37.7368421 37.2105263,37.1141053 37.2105263,36.3498947 L37.2105263,36.3498947 L37.2105263,21.3157895 L32.7894737,21.3157895 C32.4395789,21.3157895 32.1578947,21.0328421 32.1578947,20.6842105 L32.1578947,20.6842105 L32.1578947,16.2631579 Z M32.0074526,24.5149895 C32.2537684,24.2686737 32.6541895,24.2686737 32.9005053,24.5149895 C33.1468211,24.7613053 33.1468211,25.1617263 32.9005053,25.4080421 L32.9005053,25.4080421 L26.2967158,32.0118316 C26.1741895,32.1343579 26.0125053,32.1962526 25.8508211,32.1962526 C25.6891368,32.1962526 25.5274526,32.1343579 25.4036632,32.0118316 L25.4036632,32.0118316 L22.5716632,29.1785684 C22.3240842,28.9322526 22.3240842,28.5318316 22.5716632,28.2855158 C22.8179789,28.0392 23.2184,28.0392 23.4647158,28.2855158 L23.4647158,28.2855158 L25.8508211,30.6716211 Z M33.4210526,17.1562105 L33.4210526,20.0526316 L36.3174737,20.0526316 L33.4210526,17.1562105 Z" stroke="#FFFFFF" stroke-width="0.4" fill="#FFFFFF"></path>
                        </g>
                    </g>
                </g>
            </g>
        </g>
    </g>
</svg>