<?xml version="1.0" encoding="UTF-8"?>
<svg width="53px" height="53px" viewBox="0 0 53 53" version="1.1" xmlns="http://www.w3.org/2000/svg" xmlns:xlink="http://www.w3.org/1999/xlink">
    <!-- Generator: Sketch 60 (88103) - https://sketch.com -->
    <title>icon</title>
    <desc>Created with Sketch.</desc>
    <g id="页面-1" stroke="none" stroke-width="1" fill="none" fill-rule="evenodd">
        <g id="(图标)" transform="translate(-785.000000, -563.000000)">
            <g id="产量/出厂水/取水单位电耗/供水单位电耗" transform="translate(380.000000, 543.000000)">
                <g id="出厂水浊度(NTU)" transform="translate(385.000000, 0.000000)">
                    <g id="文案" transform="translate(20.000000, 19.000000)">
                        <g id="icon" transform="translate(0.000000, 1.000000)">
                            <rect id="矩形" fill="#1F1F22" x="0" y="0" width="53" height="53" rx="26.5"></rect>
                            <path d="M35.5513928,30.8713468 L29.3440544,37.0193068 L26.7045439,37.0193068 L24.2968919,37.0617199 L17.9792794,30.9236564 L17.9792794,25.6997725 L23.5051801,25.6997725 L23.5051801,28.0904593 C23.5051801,29.1069606 24.3322362,29.9340167 25.3487375,29.9340167 L28.4024829,29.9340167 C29.4189843,29.9340167 30.2446266,29.1069606 30.2446266,28.0904593 L30.2446266,25.6997725 L35.562703,25.6997725 L35.5513928,30.8713468 Z M21.542866,16.9806932 L32.2069407,16.9806932 L32.2069407,18.6187236 L29.2549869,18.6187236 C28.7092712,18.6187236 28.2653471,19.0626477 28.2653471,19.6097771 L28.2653471,27.9547372 L25.4844596,27.9547372 L25.4844596,19.6097771 C25.4844596,19.0626477 25.0419492,18.6187236 24.4948199,18.6187236 L21.542866,18.6187236 L21.542866,16.9806932 Z M30.2446266,23.7190793 L30.2446266,20.5994168 L32.3497316,20.5994168 C33.3634054,20.5994168 34.1876339,19.7751883 34.1876339,18.7615145 L34.1876339,16.8407299 C34.1876339,15.8256423 33.3619916,15 32.3483178,15 L21.4043164,15 C20.3892288,15 19.5635866,15.8256423 19.5635866,16.8407299 L19.5635866,18.7615145 C19.5635866,19.7751883 20.3878151,20.5994168 21.4014889,20.5994168 L23.5051801,20.5994168 L23.5051801,23.7190793 L17.8407299,23.7190793 C16.827056,23.7190793 16,24.5461353 16,25.5612229 L16,30.9236564 C16,31.4707857 16.2403411,31.9853984 16.6008527,32.2822903 L22.9099825,38.4726634 C23.2549427,38.8119685 23.7115907,39 24.1965142,39 L26.7045439,39 L29.3440544,39 C29.8303917,39 30.2870397,38.8119685 30.6334136,38.4726634 L36.8803375,32.3360136 C37.3002275,31.9853984 37.5419824,31.4707857 37.5419824,30.9236564 L37.5419824,25.5612229 C37.5419824,24.5461353 36.7149263,23.7190793 35.698425,23.7190793 L30.2446266,23.7190793 Z" fill="#FFFFFF"></path>
                        </g>
                    </g>
                </g>
            </g>
        </g>
    </g>
</svg>