<?xml version="1.0" encoding="UTF-8"?>
<svg width="53px" height="53px" viewBox="0 0 53 53" version="1.1" xmlns="http://www.w3.org/2000/svg" xmlns:xlink="http://www.w3.org/1999/xlink">
    <!-- Generator: Sketch 60 (88103) - https://sketch.com -->
    <title>icon</title>
    <desc>Created with Sketch.</desc>
    <g id="页面-1" stroke="none" stroke-width="1" fill="none" fill-rule="evenodd">
        <g id="(图标)" transform="translate(-1170.000000, -563.000000)">
            <g id="产量/出厂水/取水单位电耗/供水单位电耗" transform="translate(380.000000, 543.000000)">
                <g id="取水单位电耗(KWH)" transform="translate(770.000000, 0.000000)">
                    <g id="文案" transform="translate(20.000000, 19.000000)">
                        <g id="icon" transform="translate(0.000000, 1.000000)">
                            <rect id="矩形" fill="#1BBD6C" x="0" y="0" width="53" height="53" rx="26.5"></rect>
                            <path d="M28.4385651,16.4143913 C28.7922381,15.9912468 29.379588,15.8788293 29.8633622,16.1390316 C30.3483995,16.3992339 30.5770239,16.9499533 30.4191341,17.4779367 L30.4191341,17.4779367 L28.652032,23.3628035 L32.9504226,23.3628035 C33.3988295,23.3628035 33.7967117,23.6129008 33.9912319,24.0170986 C34.185752,24.4212964 34.1327011,24.8899131 33.853552,25.2385337 L33.853552,25.2385337 L25.4891846,35.7274656 C25.2656127,36.0078778 24.9435176,36.1581889 24.6100544,36.1581889 C24.4243761,36.1581889 24.2349084,36.1101904 24.0568087,36.0129303 C23.5654558,35.7426231 23.3494626,35.1830618 23.5338779,34.6512891 L23.5338779,34.6512891 L25.7670705,28.206861 L21.0505879,28.206861 C20.6034441,28.206861 20.206825,27.9542374 20.0173573,27.5487765 C19.8266265,27.1433157 19.8872562,26.6772251 20.173984,26.3323939 L20.173984,26.3323939 Z M36.5887077,16.7753904 C37.9175079,16.7753904 39,17.8566195 39,19.1854196 L39,19.1854196 L39,33.3108683 C39,34.6409315 37.9175079,35.7221605 36.5887077,35.7221605 L36.5887077,35.7221605 L34.0384725,35.7221605 C33.6898519,35.7221605 33.4069135,35.4392221 33.4069135,35.0906015 C33.4069135,34.741981 33.6898519,34.4590425 34.0384725,34.4590425 L34.0384725,34.4590425 L36.5887077,34.4590425 C37.2215298,34.4590425 37.736882,33.9436904 37.736882,33.3108683 L37.736882,33.3108683 L37.736882,19.1854196 C37.736882,18.5525975 37.2215298,18.0385084 36.5887077,18.0385084 L36.5887077,18.0385084 L34.0384725,18.0385084 C33.6898519,18.0385084 33.4069135,17.75557 33.4069135,17.4069494 C33.4069135,17.0583289 33.6898519,16.7753904 34.0384725,16.7753904 L34.0384725,16.7753904 Z M19.9615275,16.7753904 C20.3101481,16.7753904 20.5930865,17.0583289 20.5930865,17.4069494 C20.5930865,17.75557 20.3101481,18.0385084 19.9615275,18.0385084 L19.9615275,18.0385084 L17.397398,18.0385084 C16.7721546,18.0385084 16.263118,18.547545 16.263118,19.1727884 L16.263118,19.1727884 L16.263118,33.3247626 C16.263118,33.950006 16.7721546,34.4590425 17.397398,34.4590425 L17.397398,34.4590425 L19.9615275,34.4590425 C20.3101481,34.4590425 20.5930865,34.741981 20.5930865,35.0906015 C20.5930865,35.4392221 20.3101481,35.7221605 19.9615275,35.7221605 L19.9615275,35.7221605 L17.397398,35.7221605 C16.0761765,35.7221605 15,34.645984 15,33.3247626 L15,33.3247626 L15,19.1727884 C15,17.851567 16.0761765,16.7753904 17.397398,16.7753904 L17.397398,16.7753904 Z M29.0461249,17.6585626 L21.3095271,26.943743 L25.9514857,26.943743 C26.3165268,26.943743 26.6613581,27.1205795 26.8735619,27.4186754 C27.0845026,27.7155081 27.1400798,28.099496 27.0213467,28.4430641 L27.0213467,28.4430641 L24.9776218,34.3430883 L32.7268507,24.6259215 L28.4865636,24.6259215 C28.1227856,24.6259215 27.7905856,24.4579268 27.5720661,24.1661465 C27.3548098,23.8743663 27.2903908,23.508062 27.3952296,23.1594415 L27.3952296,23.1594415 L29.0461249,17.6585626 Z" stroke="#FFFFFF" stroke-width="0.4" fill="#FFFFFF"></path>
                        </g>
                    </g>
                </g>
            </g>
        </g>
    </g>
</svg>