<?xml version="1.0" encoding="UTF-8"?>
<svg width="54px" height="54px" viewBox="0 0 54 54" version="1.1" xmlns="http://www.w3.org/2000/svg" xmlns:xlink="http://www.w3.org/1999/xlink">
    <!-- Generator: Sketch 60 (88103) - https://sketch.com -->
    <title>icon</title>
    <desc>Created with Sketch.</desc>
    <g id="页面-1" stroke="none" stroke-width="1" fill="none" fill-rule="evenodd">
        <g id="水司首页-关键指标-自来水" transform="translate(-1555.000000, -330.000000)">
            <g id="二级" transform="translate(380.000000, 152.000000)">
                <g id="收费水量" transform="translate(1155.000000, 160.000000)">
                    <g id="icon" transform="translate(20.000000, 18.000000)">
                        <rect id="矩形" fill="#32414E" x="0" y="0" width="54" height="54" rx="26.5"></rect>
                        <path d="M23.4408262,15.2830189 C23.756139,15.2830189 24.0251202,15.5133903 24.0753128,15.8248421 C24.331424,17.4091281 25.6776167,18.5584111 27.2760596,18.5584111 C28.8745025,18.5584111 30.2206951,17.4091281 30.4755194,15.8248421 C30.526999,15.5133903 30.7959801,15.2830189 31.1112929,15.2830189 L31.1112929,15.2830189 L35.8641509,15.2830189 C37.1794558,15.2830189 38.2502324,16.3537954 38.2502324,17.6691003 L38.2502324,17.6691003 L38.2502324,37.3497676 C38.2502324,38.6650725 37.1794558,39.7358491 35.8641509,39.7358491 L35.8641509,39.7358491 L31.1112929,39.7358491 C30.7959801,39.7358491 30.526999,39.5067646 30.4755194,39.1953128 C30.2206951,37.6110268 28.8745025,36.4604568 27.2760596,36.4604568 C25.6776167,36.4604568 24.331424,37.6110268 24.0753128,39.1953128 C24.0251202,39.5067646 23.756139,39.7358491 23.4408262,39.7358491 L23.4408262,39.7358491 L18.6879682,39.7358491 C17.3713764,39.7358491 16.3018868,38.6650725 16.3018868,37.3497676 L16.3018868,37.3497676 L16.3018868,17.6691003 C16.3018868,16.3537954 17.3713764,15.2830189 18.6879682,15.2830189 L18.6879682,15.2830189 Z M22.9260298,16.5700099 L18.6879682,16.5700099 C18.0817954,16.5700099 17.5888779,17.0642145 17.5888779,17.6691003 L17.5888779,17.6691003 L17.5888779,37.3497676 C17.5888779,37.9559404 18.0817954,38.448858 18.6879682,38.448858 L18.6879682,38.448858 L22.9260298,38.448858 C23.478149,36.5209454 25.2297438,35.1734657 27.2760596,35.1734657 C29.3223754,35.1734657 31.0726832,36.5209454 31.6260894,38.448858 L31.6260894,38.448858 L35.8641509,38.448858 C36.4703237,38.448858 36.9632413,37.9559404 36.9632413,37.3497676 L36.9632413,37.3497676 L36.9632413,17.6691003 C36.9632413,17.0642145 36.4703237,16.5700099 35.8641509,16.5700099 L35.8641509,16.5700099 L31.6260894,16.5700099 C31.0726832,18.4979225 29.3223754,19.8454022 27.2760596,19.8454022 C25.2297438,19.8454022 23.4794359,18.4979225 22.9260298,16.5700099 L22.9260298,16.5700099 Z M23.9664334,22.9493672 C24.2547194,22.7370137 24.6549736,22.7987893 24.8673271,23.0832143 L24.8673271,23.0832143 L27.2765744,26.3341537 L29.6845347,23.0832143 C29.8968882,22.7987893 30.2984294,22.7383007 30.5854284,22.9493672 C30.8698534,23.1617208 30.930342,23.564549 30.7192755,23.850261 L30.7192755,23.850261 L28.5545565,26.7717307 L30.4798951,26.7717307 C30.8351047,26.7717307 31.1233907,27.0600167 31.1233907,27.4152262 C31.1233907,27.7704357 30.8351047,28.0587217 30.4798951,28.0587217 L30.4798951,28.0587217 L27.9200699,28.0587217 L27.9200699,31.5529025 C27.9200699,31.909399 27.6317839,32.196398 27.2765744,32.196398 C26.9200779,32.196398 26.6330788,31.909399 26.6330788,31.5529025 L26.6330788,31.5529025 L26.6330788,28.0587217 L24.0719666,28.0587217 C23.7167571,28.0587217 23.4284711,27.7704357 23.4284711,27.4152262 C23.4284711,27.0600167 23.7167571,26.7717307 24.0719666,26.7717307 L24.0719666,26.7717307 L25.9985923,26.7717307 L23.8325863,23.850261 C23.6215198,23.564549 23.6820083,23.1617208 23.9664334,22.9493672 Z" id="合并形状" stroke="#FFFFFF" stroke-width="0.4" fill="#FFFFFF"></path>
                    </g>
                </g>
            </g>
        </g>
    </g>
</svg>