<?xml version="1.0" encoding="UTF-8"?>
<svg width="53px" height="53px" viewBox="0 0 53 53" version="1.1" xmlns="http://www.w3.org/2000/svg" xmlns:xlink="http://www.w3.org/1999/xlink">
    <!-- Generator: Sketch 60 (88103) - https://sketch.com -->
    <title>icon</title>
    <desc>Created with Sketch.</desc>
    <g id="页面-1" stroke="none" stroke-width="1" fill="none" fill-rule="evenodd">
        <g id="主题分析-经营管理" transform="translate(-1424.000000, -176.000000)">
            <g id="外部工程收入(万元)" transform="translate(1404.000000, 156.000000)">
                <g id="文案" transform="translate(20.000000, 19.000000)">
                    <g id="icon" transform="translate(0.000000, 1.000000)">
                        <rect id="矩形" fill="#1BBD6C" x="0" y="0" width="53" height="53" rx="26.5"></rect>
                        <path d="M23.0067368,15 C23.3162105,15 23.5802105,15.2261053 23.6294737,15.5317895 C23.8808421,17.0867368 25.2021053,18.2147368 26.7709474,18.2147368 C28.3397895,18.2147368 29.6610526,17.0867368 29.9111579,15.5317895 C29.9616842,15.2261053 30.2256842,15 30.5351579,15 L30.5351579,15 L35.2,15 C36.4909474,15 37.5418947,16.0509474 37.5418947,17.3418947 L37.5418947,17.3418947 L37.5418947,36.6581053 C37.5418947,37.9490526 36.4909474,39 35.2,39 L35.2,39 L30.5351579,39 C30.2256842,39 29.9616842,38.7751579 29.9111579,38.4694737 C29.6610526,36.9145263 28.3397895,35.7852632 26.7709474,35.7852632 C25.2021053,35.7852632 23.8808421,36.9145263 23.6294737,38.4694737 C23.5802105,38.7751579 23.3162105,39 23.0067368,39 L23.0067368,39 L18.3418947,39 C17.0496842,39 16,37.9490526 16,36.6581053 L16,36.6581053 L16,17.3418947 C16,16.0509474 17.0496842,15 18.3418947,15 L18.3418947,15 Z M22.5014737,16.2631579 L18.3418947,16.2631579 C17.7469474,16.2631579 17.2631579,16.7482105 17.2631579,17.3418947 L17.2631579,17.3418947 L17.2631579,36.6581053 C17.2631579,37.2530526 17.7469474,37.7368421 18.3418947,37.7368421 L18.3418947,37.7368421 L22.5014737,37.7368421 C23.0433684,35.8446316 24.7625263,34.5221053 26.7709474,34.5221053 C28.7793684,34.5221053 30.4972632,35.8446316 31.0404211,37.7368421 L31.0404211,37.7368421 L35.2,37.7368421 C35.7949474,37.7368421 36.2787368,37.2530526 36.2787368,36.6581053 L36.2787368,36.6581053 L36.2787368,17.3418947 C36.2787368,16.7482105 35.7949474,16.2631579 35.2,16.2631579 L35.2,16.2631579 L31.0404211,16.2631579 C30.4972632,18.1553684 28.7793684,19.4778947 26.7709474,19.4778947 C24.7625263,19.4778947 23.0446316,18.1553684 22.5014737,16.2631579 L22.5014737,16.2631579 Z M29.1348211,22.6557474 C29.3432421,22.3765895 29.7373474,22.3172211 30.0190316,22.5243789 C30.2981895,22.7328 30.3575579,23.1281684 30.1504,23.4085895 L30.1504,23.4085895 L28.0257684,26.2759579 L29.9154526,26.2759579 C30.2640842,26.2759579 30.5470316,26.5589053 30.5470316,26.9075368 C30.5470316,27.2561684 30.2640842,27.5391158 29.9154526,27.5391158 L29.9154526,27.5391158 L27.4030316,27.5391158 L27.4030316,30.9685895 C27.4030316,31.3184842 27.1200842,31.6001684 26.7714526,31.6001684 C26.4215579,31.6001684 26.1398737,31.3184842 26.1398737,30.9685895 L26.1398737,30.9685895 L26.1398737,27.5391158 L23.6261895,27.5391158 C23.2775579,27.5391158 22.9946105,27.2561684 22.9946105,26.9075368 C22.9946105,26.5589053 23.2775579,26.2759579 23.6261895,26.2759579 L23.6261895,26.2759579 L25.5171368,26.2759579 L23.3912421,23.4085895 C23.1840842,23.1281684 23.2434526,22.7328 23.5226105,22.5243789 C23.8055579,22.3159579 24.1984,22.3765895 24.4068211,22.6557474 L24.4068211,22.6557474 L26.7714526,25.8464842 Z" id="合并形状" stroke="#FFFFFF" stroke-width="0.4" fill="#FFFFFF"></path>
                    </g>
                </g>
            </g>
        </g>
    </g>
</svg>