<?xml version="1.0" encoding="UTF-8"?>
<svg width="53px" height="53px" viewBox="0 0 53 53" version="1.1" xmlns="http://www.w3.org/2000/svg" xmlns:xlink="http://www.w3.org/1999/xlink">
    <!-- Generator: Sketch 60 (88103) - https://sketch.com -->
    <title>icon</title>
    <desc>Created with Sketch.</desc>
    <g id="页面-1" stroke="none" stroke-width="1" fill="none" fill-rule="evenodd">
        <g id="主题分析-客服管理" transform="translate(-1170.000000, -176.000000)">
            <g id="产量/出厂水/取水单位电耗/供水单位电耗" transform="translate(360.000000, 156.000000)">
                <g id="售后处理及时率(%)" transform="translate(790.000000, 0.000000)">
                    <g id="文案" transform="translate(20.000000, 19.000000)">
                        <g id="icon" transform="translate(0.000000, 1.000000)">
                            <rect id="矩形" fill="#1BBD6C" x="0" y="0" width="53" height="53" rx="26.5"></rect>
                            <path d="M27.9987368,28.4185263 C29.6269474,28.4185263 31.2273684,28.8517895 32.6256842,29.6703158 C32.9263158,29.8471579 33.0273684,30.2349474 32.8517895,30.5355789 C32.6749474,30.8362105 32.2884211,30.9372632 31.9865263,30.7616842 C30.7827368,30.0543158 29.4033684,29.6816842 27.9987368,29.6816842 L27.9987368,29.6816842 L25.1629474,29.6816842 C20.5852632,29.6816842 17.2631579,32.7385263 17.2631579,36.9498947 C17.2631579,37.3844211 17.6155789,37.7368421 18.0488421,37.7368421 L18.0488421,37.7368421 L27.4770526,37.7368421 C27.8256842,37.7368421 28.1086316,38.0197895 28.1086316,38.3684211 C28.1086316,38.7170526 27.8256842,39 27.4770526,39 L27.4770526,39 L18.0488421,39 C16.9195789,39 16,38.0804211 16,36.9498947 C16,32.0867368 19.9385263,28.4185263 25.1629474,28.4185263 L25.1629474,28.4185263 Z M36.3784,32.3477053 C36.6158737,32.0900211 37.0150316,32.0761263 37.2714526,32.3110737 C37.5278737,32.5472842 37.5442947,32.9477053 37.3080842,33.2041263 L37.3080842,33.2041263 L32.7228211,38.1733895 C32.6040842,38.3022316 32.4373474,38.3754947 32.2630316,38.3767579 L32.2630316,38.3767579 C32.0849263,38.3767579 31.9194526,38.3060211 31.7994526,38.1797053 L31.7994526,38.1797053 L29.0584,35.2757053 C28.8196632,35.0218105 28.8310316,34.6226526 29.0849263,34.3826526 C29.3375579,34.1439158 29.7367158,34.1552842 29.9779789,34.4091789 L29.9779789,34.4091789 L32.2529263,36.8192842 Z M26.5809684,15 C30.0849684,15 32.9359158,17.8509474 32.9359158,21.3562105 C32.9359158,24.8602105 30.0849684,27.7111579 26.5809684,27.7111579 C23.0769684,27.7111579 20.2260211,24.8602105 20.2260211,21.3562105 C20.2260211,17.8509474 23.0769684,15 26.5809684,15 Z M26.5809684,16.2631579 C23.7729684,16.2631579 21.4891789,18.5482105 21.4891789,21.3562105 C21.4891789,24.1629474 23.7729684,26.448 26.5809684,26.448 C29.3889684,26.448 31.6727579,24.1629474 31.6727579,21.3562105 C31.6727579,18.5482105 29.3889684,16.2631579 26.5809684,16.2631579 Z" stroke="#FFFFFF" stroke-width="0.4" fill="#FFFFFF"></path>
                        </g>
                    </g>
                </g>
            </g>
        </g>
    </g>
</svg>