<?xml version="1.0" encoding="UTF-8"?>
<svg width="53px" height="53px" viewBox="0 0 53 53" version="1.1" xmlns="http://www.w3.org/2000/svg" xmlns:xlink="http://www.w3.org/1999/xlink">
    <!-- Generator: Sketch 60 (88103) - https://sketch.com -->
    <title>icon</title>
    <desc>Created with Sketch.</desc>
    <g id="页面-1" stroke="none" stroke-width="1" fill="none" fill-rule="evenodd">
        <g id="主题分析-客服管理" transform="translate(-400.000000, -176.000000)">
            <g id="产量/出厂水/取水单位电耗/供水单位电耗" transform="translate(360.000000, 156.000000)">
                <g id="接通率(%)" transform="translate(20.000000, 0.000000)">
                    <g id="文案" transform="translate(20.000000, 19.000000)">
                        <g id="icon" transform="translate(0.000000, 1.000000)">
                            <rect id="矩形" fill="#078AF4" x="0" y="0" width="53" height="53" rx="26.5"></rect>
                            <path d="M18.5221053,15 C21.0155789,15 23.0442105,17.0286316 23.0442105,19.5221053 C23.0442105,21.0631579 22.2421053,22.5031579 20.9625263,23.3267368 C21.3010526,24.3157895 22.256,26.688 24.104,28.4538947 C25.9469474,30.4282105 28.5604211,31.4374737 29.6176842,31.7848421 C30.4324211,30.4534737 31.8938947,29.6197895 33.4778947,29.6197895 C35.9713684,29.6197895 38,31.6484211 38,34.1418947 C38,36.6353684 35.9713684,38.664 33.4778947,38.664 C22.8181053,38.664 14.2652632,30.3221053 14.0063158,19.6736842 L14.0063158,19.6736842 L14,19.5221053 C14,17.0286316 16.0286316,15 18.5221053,15 Z M18.5221053,16.2631579 C16.7246316,16.2631579 15.2631579,17.7246316 15.2631579,19.5221053 C15.512,29.6008421 23.5090526,37.4008421 33.4778947,37.4008421 C35.2753684,37.4008421 36.7368421,35.9393684 36.7368421,34.1418947 C36.7368421,32.3444211 35.2753684,30.8829474 33.4778947,30.8829474 C32.2008421,30.8829474 31.0336842,31.6357895 30.5069474,32.7991579 C30.3806316,33.0783158 30.0698947,33.2248421 29.7743158,33.1515789 C29.6126316,33.1098947 25.7776842,32.1006316 23.2046316,29.3406316 C20.5861053,26.8395789 19.6349474,23.3368421 19.5957895,23.1890526 C19.5174737,22.8972632 19.6602105,22.5890526 19.9330526,22.4576842 C21.056,21.9195789 21.7810526,20.7663158 21.7810526,19.5221053 C21.7810526,17.7246316 20.3195789,16.2631579 18.5221053,16.2631579 Z M27.1291368,19.3052211 C27.2150316,18.9666947 27.5573474,18.7570105 27.8958737,18.8466947 C30.4335579,19.4858526 32.4558737,21.3502737 33.3021895,23.8323789 C33.4146105,24.1608 33.2390316,24.5195368 32.9080842,24.6332211 C32.8411368,24.6559579 32.7716632,24.6673263 32.7047158,24.6673263 C32.4419789,24.6673263 32.1956632,24.5018526 32.1072421,24.2391158 C31.3986105,22.1637474 29.7097684,20.6062737 27.5876632,20.0706947 C27.2491368,19.9860632 27.0445053,19.6424842 27.1291368,19.3052211 Z M27.9705142,15.2585544 L28.0642526,15.2701895 C32.3539368,16.0621895 35.8225684,19.3097684 36.8987789,23.5426105 C36.9859368,23.8811368 36.7813053,24.2234526 36.4427789,24.3106105 C36.3909895,24.3245053 36.3379368,24.3295579 36.2861474,24.3295579 C36.0044632,24.3295579 35.7480421,24.1400842 35.6760421,23.8533474 C34.7198316,20.0967158 31.6415158,17.2154526 27.8343579,16.5106105 C27.4920421,16.4474526 27.2646737,16.1177684 27.3278316,15.7754526 C27.3909895,15.4318737 27.7181474,15.2007158 28.0642526,15.2701895 Z" stroke="#FFFFFF" stroke-width="0.4" fill="#FFFFFF"></path>
                        </g>
                    </g>
                </g>
            </g>
        </g>
    </g>
</svg>