<?xml version="1.0" encoding="UTF-8"?>
<svg width="53px" height="53px" viewBox="0 0 53 53" version="1.1" xmlns="http://www.w3.org/2000/svg" xmlns:xlink="http://www.w3.org/1999/xlink">
    <!-- Generator: Sketch 60 (88103) - https://sketch.com -->
    <title>icon</title>
    <desc>Created with Sketch.</desc>
    <g id="页面-1" stroke="none" stroke-width="1" fill="none" fill-rule="evenodd">
        <g id="主题分析-客服管理" transform="translate(-1555.000000, -176.000000)">
            <g id="产量/出厂水/取水单位电耗/供水单位电耗" transform="translate(360.000000, 156.000000)">
                <g id="智能水表覆盖率(%)" transform="translate(1175.000000, 0.000000)">
                    <g id="文案" transform="translate(20.000000, 19.000000)">
                        <g id="icon" transform="translate(0.000000, 1.000000)">
                            <rect id="bg" fill="#078AF4" x="0" y="0" width="53" height="53" rx="26.5"></rect>
                            <path d="M27,15 C33.6173196,15 39,20.3839175 39,27 C39,33.6173196 33.6173196,39 27,39 C20.3826804,39 15,33.6173196 15,27 C15,20.3839175 20.3826804,15 27,15 Z M27,16.7319588 C21.337732,16.7319588 16.7319588,21.3389691 16.7319588,27 C16.7319588,32.6610309 21.337732,37.2680412 27,37.2680412 C32.662268,37.2680412 37.2680412,32.6610309 37.2680412,27 C37.2680412,21.3389691 32.662268,16.7319588 27,16.7319588 Z M31.3420645,20.8041131 C31.6822707,20.4676182 32.2303119,20.4676182 32.5668068,20.8053502 C32.9045387,21.1443192 32.9045387,21.6923605 32.5655697,22.0300924 L32.5655697,22.0300924 L30.5505155,24.1472165 C31.1826804,24.9327835 31.5773196,25.9162887 31.5773196,27 C31.5773196,29.5237113 29.5237113,31.5773196 27,31.5773196 C24.4762887,31.5773196 22.4226804,29.5237113 22.4226804,27 C22.4226804,24.4762887 24.4762887,22.4226804 27,22.4226804 C27.8115464,22.4226804 28.5624742,22.6527835 29.2230928,23.0239175 L29.2230928,23.0239175 Z M27,24.1546392 C25.4313402,24.1546392 24.1546392,25.4313402 24.1546392,27 C24.1546392,28.5698969 25.4313402,29.8453608 27,29.8453608 C28.5686598,29.8453608 29.8453608,28.5698969 29.8453608,27 C29.8453608,25.4313402 28.5686598,24.1546392 27,24.1546392 Z" id="合并形状" stroke="#FFFFFF" stroke-width="0.4" fill="#FFFFFF"></path>
                        </g>
                    </g>
                </g>
            </g>
        </g>
    </g>
</svg>