<?xml version="1.0" encoding="UTF-8"?>
<svg width="53px" height="53px" viewBox="0 0 53 53" version="1.1" xmlns="http://www.w3.org/2000/svg" xmlns:xlink="http://www.w3.org/1999/xlink">
    <!-- Generator: Sketch 60 (88103) - https://sketch.com -->
    <title>icon</title>
    <desc>Created with Sketch.</desc>
    <g id="页面-1" stroke="none" stroke-width="1" fill="none" fill-rule="evenodd">
        <g id="(图标)" transform="translate(-785.000000, -176.000000)">
            <g id="产量/出厂水/取水单位电耗/供水单位电耗" transform="translate(360.000000, 156.000000)">
                <g id="出厂水浊度(NTU)" transform="translate(405.000000, 0.000000)">
                    <g id="文案" transform="translate(20.000000, 19.000000)">
                        <g id="icon" transform="translate(0.000000, 1.000000)">
                            <rect id="矩形" fill="#1F1F22" x="0" y="0" width="53" height="53" rx="26.5"></rect>
                            <path d="M23.3002105,15.0186808 C23.4315789,14.9896282 23.5654737,14.9921545 23.6842105,15.0426808 C23.6854737,15.043944 23.688,15.043944 23.6892632,15.043944 C23.7170526,15.0565755 23.7334737,15.0767861 23.7587368,15.091944 C23.8029474,15.1197334 23.8496842,15.1437334 23.8875789,15.1816282 C23.9229474,15.2195229 23.9444211,15.2637334 23.9709474,15.307944 C23.9873684,15.3344703 24.0088421,15.3534177 24.0214737,15.3824703 C25.7166316,19.4814177 27.1010526,21.5075229 29.6096842,24.780365 C30.3284211,23.6321545 30.9549474,22.3929966 31.7583158,20.5424703 C31.7747368,20.5045755 31.8025263,20.4793124 31.824,20.4464703 C31.8467368,20.4136282 31.8644211,20.3757334 31.8934737,20.3454177 C32.0235789,20.2165755 32.2054737,20.1546808 32.3898947,20.1711019 C32.4581053,20.1761545 32.5237895,20.1862598 32.5856842,20.2127861 L32.5856842,20.2127861 C32.6109474,20.2228913 32.6261053,20.2405755 32.6450526,20.251944 C32.6955789,20.2809966 32.7461053,20.3100492 32.7865263,20.3517334 C32.8244211,20.388365 32.8471579,20.4351019 32.8736842,20.4793124 C32.8888421,20.5045755 32.9103158,20.5235229 32.9216842,20.5513124 C34.2366316,23.7281545 35.3065263,25.284365 37.2682105,27.8435229 L37.2682105,27.8435229 C37.2707368,27.8473124 37.272,27.8485755 37.2732632,27.8511019 L37.2732632,27.8511019 L37.2757895,27.8536282 C38.4517895,29.3353124 39,30.756365 39,32.3264703 C39,36.0022598 36.0113684,38.9921545 32.3381053,38.9921545 C30.7717895,38.9921545 29.3583158,38.467944 28.1936842,37.5167861 C26.8383158,38.4452071 25.2012632,38.9921545 23.4378947,38.9921545 C18.7856842,38.9921545 15,35.2052071 15,30.5492071 C15,28.531944 15.6795789,26.7786808 17.2004211,24.8662598 L17.2004211,24.8662598 C19.7178947,21.5858387 20.8231579,20.0612071 22.8581053,15.372365 C22.8707368,15.3420492 22.8934737,15.324365 22.9098947,15.2978387 C22.9376842,15.2548913 22.9604211,15.2106808 22.9957895,15.1753124 C23.0298947,15.1412071 23.0715789,15.1222598 23.1107368,15.0982598 C23.1410526,15.0793124 23.1625263,15.0540492 23.1966316,15.0401545 L23.1966316,15.0401545 C23.2345263,15.0262598 23.2673684,15.0262598 23.3002105,15.0186808 Z M32.3305263,22.3538387 C31.6686316,23.7824703 31.0863158,24.8460492 30.4042105,25.8818387 C31.4084211,27.4140492 31.8745263,28.8932071 31.8745263,30.5492071 C31.8745263,32.9769966 30.8387368,35.1622598 29.1953684,36.7033124 C30.0934737,37.363944 31.1608421,37.7289966 32.3381053,37.7289966 C35.3141053,37.7289966 37.7368421,35.3049966 37.7368421,32.3264703 C37.7368421,31.0367861 37.2884211,29.8974177 36.2804211,28.6317334 C36.2791579,28.6304703 36.2791579,28.627944 36.2766316,28.6254177 C36.2766316,28.6241545 36.2753684,28.6241545 36.2741053,28.6228913 C34.5284211,26.3466808 33.4635789,24.828365 32.3305263,22.3538387 Z M23.4290526,17.196365 C21.6846316,21.0212071 20.5313684,22.5988913 18.1957895,25.6456282 C18.1945263,25.6468913 18.1932632,25.6468913 18.1932632,25.6481545 C18.1907368,25.6494177 18.1907368,25.651944 18.1894737,25.6532071 C16.8568421,27.3268913 16.2631579,28.836365 16.2631579,30.5492071 C16.2631579,34.507944 19.4816842,37.7289966 23.4378947,37.7289966 C27.3928421,37.7289966 30.6113684,34.507944 30.6113684,30.5492071 C30.6113684,28.8351019 30.0176842,27.3256282 28.6863158,25.6532071 C28.6850526,25.651944 28.6850526,25.6494177 28.6837895,25.6494177 C28.6825263,25.6481545 28.68,25.6481545 28.68,25.6456282 C26.3444211,22.6001545 24.9536842,20.6081545 23.4290526,17.196365 Z M28.2459789,29.3468071 C28.5958737,29.3468071 28.8775579,29.6297545 28.8775579,29.9783861 C28.8775579,32.6941755 27.1205053,34.9956492 24.6977684,35.4516492 C24.6573474,35.4592282 24.6181895,35.4630177 24.5790316,35.4630177 C24.2821895,35.4630177 24.0169263,35.2520703 23.9600842,34.9489124 C23.8944,34.6053334 24.1205053,34.2756492 24.4628211,34.2112282 C26.2893474,33.8663861 27.6144,32.0865966 27.6144,29.9783861 C27.6144,29.6297545 27.8973474,29.3468071 28.2459789,29.3468071 Z" stroke="#FFFFFF" stroke-width="0.4" fill="#FFFFFF"></path>
                        </g>
                    </g>
                </g>
            </g>
        </g>
    </g>
</svg>