<?xml version="1.0" encoding="UTF-8"?>
<svg width="53px" height="53px" viewBox="0 0 53 53" version="1.1" xmlns="http://www.w3.org/2000/svg" xmlns:xlink="http://www.w3.org/1999/xlink">
    <!-- Generator: Sketch 60 (88103) - https://sketch.com -->
    <title>icon</title>
    <desc>Created with Sketch.</desc>
    <defs>
        <linearGradient x1="50%" y1="0%" x2="50%" y2="100%" id="linearGradient-1">
            <stop stop-color="#1BBD6C" offset="0%"></stop>
            <stop stop-color="#35E58C" offset="100%"></stop>
        </linearGradient>
    </defs>
    <g id="页面-1" stroke="none" stroke-width="1" fill="none" fill-rule="evenodd">
        <g id="集团首页-关键指标-日处理规模" transform="translate(-1424.000000, -175.000000)">
            <g id="日处理、服务、售水，漏损、水质、客服" transform="translate(380.000000, 156.000000)">
                <g id="客服热线接通率(月)" transform="translate(1024.000000, 0.000000)">
                    <g id="icon" transform="translate(20.000000, 19.000000)">
                        <rect id="矩形" fill="url(#linearGradient-1)" x="0" y="0" width="53" height="53" rx="26.5"></rect>
                        <path d="M19.5221053,15 C22.0155789,15 24.0442105,17.0286316 24.0442105,19.5221053 C24.0442105,21.0631579 23.2421053,22.5031579 21.9625263,23.3267368 C22.3010526,24.3157895 23.256,26.688 25.104,28.4538947 C26.9469474,30.4282105 29.5604211,31.4374737 30.6176842,31.7848421 C31.4324211,30.4534737 32.8938947,29.6197895 34.4778947,29.6197895 C36.9713684,29.6197895 39,31.6484211 39,34.1418947 C39,36.6353684 36.9713684,38.664 34.4778947,38.664 C23.8181053,38.664 15.2652632,30.3221053 15.0063158,19.6736842 L15.0063158,19.6736842 L15,19.5221053 C15,17.0286316 17.0286316,15 19.5221053,15 Z M19.5221053,16.2631579 C17.7246316,16.2631579 16.2631579,17.7246316 16.2631579,19.5221053 C16.512,29.6008421 24.5090526,37.4008421 34.4778947,37.4008421 C36.2753684,37.4008421 37.7368421,35.9393684 37.7368421,34.1418947 C37.7368421,32.3444211 36.2753684,30.8829474 34.4778947,30.8829474 C33.2008421,30.8829474 32.0336842,31.6357895 31.5069474,32.7991579 C31.3806316,33.0783158 31.0698947,33.2248421 30.7743158,33.1515789 C30.6126316,33.1098947 26.7776842,32.1006316 24.2046316,29.3406316 C21.5861053,26.8395789 20.6349474,23.3368421 20.5957895,23.1890526 C20.5174737,22.8972632 20.6602105,22.5890526 20.9330526,22.4576842 C22.056,21.9195789 22.7810526,20.7663158 22.7810526,19.5221053 C22.7810526,17.7246316 21.3195789,16.2631579 19.5221053,16.2631579 Z M28.1291368,19.3052211 C28.2150316,18.9666947 28.5573474,18.7570105 28.8958737,18.8466947 C31.4335579,19.4858526 33.4558737,21.3502737 34.3021895,23.8323789 C34.4146105,24.1608 34.2390316,24.5195368 33.9080842,24.6332211 C33.8411368,24.6559579 33.7716632,24.6673263 33.7047158,24.6673263 C33.4419789,24.6673263 33.1956632,24.5018526 33.1072421,24.2391158 C32.3986105,22.1637474 30.7097684,20.6062737 28.5876632,20.0706947 C28.2491368,19.9860632 28.0445053,19.6424842 28.1291368,19.3052211 Z M28.9705142,15.2585544 L29.0642526,15.2701895 C33.3539368,16.0621895 36.8225684,19.3097684 37.8987789,23.5426105 C37.9859368,23.8811368 37.7813053,24.2234526 37.4427789,24.3106105 C37.3909895,24.3245053 37.3379368,24.3295579 37.2861474,24.3295579 C37.0044632,24.3295579 36.7480421,24.1400842 36.6760421,23.8533474 C35.7198316,20.0967158 32.6415158,17.2154526 28.8343579,16.5106105 C28.4920421,16.4474526 28.2646737,16.1177684 28.3278316,15.7754526 C28.3909895,15.4318737 28.7181474,15.2007158 29.0642526,15.2701895 Z" stroke="#FFFFFF" stroke-width="0.4" fill="#FFFFFF"></path>
                    </g>
                </g>
            </g>
        </g>
    </g>
</svg>