<?xml version="1.0" encoding="UTF-8"?>
<svg width="16px" height="16px" viewBox="0 0 16 16" version="1.1" xmlns="http://www.w3.org/2000/svg" xmlns:xlink="http://www.w3.org/1999/xlink">
    <!-- Generator: Sketch 60 (88103) - https://sketch.com -->
    <title>下降箭头</title>
    <desc>Created with Sketch.</desc>
    <g id="页面-1" stroke="none" stroke-width="1" fill="none" fill-rule="evenodd">
        <g id="主题分析-生产管理" transform="translate(-637.000000, -270.000000)" fill="#F85454">
            <g id="产量/出厂水/取水单位电耗/供水单位电耗" transform="translate(360.000000, 156.000000)">
                <g id="产量(吨)" transform="translate(20.000000, 0.000000)">
                    <g id="环比/同比增长" transform="translate(19.000000, 110.000000)">
                        <g id="同比增长" transform="translate(133.000000, 0.000000)">
                            <g id="下降箭头" transform="translate(105.000000, 4.000000)">
                                <circle id="椭圆形" fill-opacity="0.2" cx="8" cy="8" r="8"></circle>
                                <path d="M10.9088481,7.28875899 L8.27548534,4.12083916 C8.26698094,4.11038241 8.2539742,4.10515403 8.24446929,4.0956479 C8.23446411,4.08661707 8.22896126,4.07425909 8.21745531,4.06570357 C8.20945116,4.05952458 8.19894573,4.05809866 8.19044133,4.05239498 C8.17093123,4.04051231 8.15092087,4.03148148 8.12940974,4.02387657 C8.10839887,4.01579636 8.08838851,4.00866675 8.06687738,4.0048643 C8.04386547,4.00058654 8.02235434,3.99963592 7.99934243,4.00011123 C7.9778313,4.00011123 7.95732068,4.00058654 7.93630981,4.00438899 C7.9132979,4.00866675 7.89228703,4.01579636 7.87027564,4.02435188 C7.84976502,4.03195679 7.83025493,4.04098762 7.81124509,4.05239498 C7.80224043,4.05762335 7.79223525,4.05952458 7.78373085,4.06570357 C7.7722249,4.07425909 7.76672205,4.08661707 7.75621661,4.09612321 C7.74671169,4.10515403 7.73420522,4.11038241 7.72570082,4.12083916 L5.07833078,7.30682065 C4.98428211,7.43753002 4.97427693,7.60626393 5.05181706,7.74647944 C5.12935719,7.88621964 5.28143589,7.97320078 5.4480221,7.97320078 L6.78871592,7.97320078 L6.78871592,11.6672852 C6.78871592,11.8469512 6.93929385,11.9914445 7.12689093,11.9976235 L7.12689093,11.9980988 L7.12939222,11.9980988 C7.13289404,11.9980988 7.13539533,12 7.13889714,12 C7.14239895,12 7.14490025,11.9980988 7.1479018,11.9980988 L8.85328435,11.9980988 C8.85628591,11.9980988 8.8587872,12 8.86228901,12 C8.86579083,12 8.86829212,11.9980988 8.87179393,11.9980988 L8.87879756,11.9980988 L8.87879756,11.9966729 C9.0643936,11.9881173 9.21247024,11.8455253 9.21247024,11.6672852 L9.21247024,7.97320078 L10.5531641,7.97320078 C10.7197503,7.97320078 10.871829,7.88621964 10.9493691,7.74647944 C11.0269092,7.60626393 11.016904,7.43753002 10.9088481,7.28875899" id="Fill-1" transform="translate(8.000000, 8.000000) rotate(-180.000000) translate(-8.000000, -8.000000) "></path>
                            </g>
                        </g>
                    </g>
                </g>
            </g>
        </g>
    </g>
</svg>