<?xml version="1.0" encoding="UTF-8"?>
<svg width="53px" height="53px" viewBox="0 0 53 53" version="1.1" xmlns="http://www.w3.org/2000/svg" xmlns:xlink="http://www.w3.org/1999/xlink">
    <!-- Generator: Sketch 60 (88103) - https://sketch.com -->
    <title>icon</title>
    <desc>Created with Sketch.</desc>
    <defs>
        <linearGradient x1="50%" y1="0%" x2="50%" y2="100%" id="linearGradient-1">
            <stop stop-color="#FFBB0A" offset="0%"></stop>
            <stop stop-color="#FFD566" offset="100%"></stop>
        </linearGradient>
    </defs>
    <g id="页面-1" stroke="none" stroke-width="1" fill="none" fill-rule="evenodd">
        <g id="集团首页-关键指标-日处理规模" transform="translate(-1680.000000, -175.000000)">
            <g id="日处理、服务、售水，漏损、水质、客服" transform="translate(380.000000, 156.000000)">
                <g id="投诉次数(次)" transform="translate(1280.000000, 0.000000)">
                    <g id="icon" transform="translate(20.000000, 19.000000)">
                        <rect id="矩形" fill="url(#linearGradient-1)" x="0" y="0" width="53" height="53" rx="26.5"></rect>
                        <path d="M26.9662402,16.1445596 C27.316145,16.1445596 27.5978373,16.426252 27.5978373,16.7761568 C27.5978373,17.1247985 27.316145,17.407754 26.9662402,17.407754 L26.9662402,17.407754 L17.1739575,17.407754 C16.6724693,17.407754 16.2631944,17.8208186 16.2631944,18.3286227 L16.2631944,18.3286227 L16.2631944,35.8162854 C16.2631944,36.3240895 16.6724693,36.7371541 17.1739575,36.7371541 L17.1739575,36.7371541 L34.3950862,36.7371541 C34.8978376,36.7371541 35.3058493,36.3240895 35.3058493,35.8162854 L35.3058493,35.8162854 L35.3058493,26.4762263 C35.3058493,26.1275847 35.5888049,25.8446291 35.9374465,25.8446291 C36.2860882,25.8446291 36.5690437,26.1275847 36.5690437,26.4762263 L36.5690437,26.4762263 L36.5690437,35.8162854 C36.5690437,37.0201096 35.5938576,38.0003485 34.3950862,38.0003485 L34.3950862,38.0003485 L17.1739575,38.0003485 C15.975186,38.0003485 15,37.0201096 15,35.8162854 L15,35.8162854 L15,18.3286227 C15,17.1235353 15.975186,16.1445596 17.1739575,16.1445596 L17.1739575,16.1445596 Z M34.0429076,14.4700692 C34.6681888,13.844788 35.6837971,13.8435248 36.3052887,14.4650164 L36.3052887,14.4650164 L38.5348268,16.6958177 C39.1563184,17.3173093 39.1550552,18.3316544 38.5310372,18.9581988 L38.5310372,18.9581988 L28.0098913,29.4780814 C28.0035754,29.4843974 27.994733,29.4869237 27.988417,29.4919765 C27.9568372,29.52103 27.9189414,29.5399779 27.8810455,29.5639786 C27.8469393,29.5841897 27.812833,29.6081904 27.7749372,29.6220855 L27.7749372,29.6220855 L27.7509365,29.6347175 L23.5861847,30.9332813 C23.5533416,30.9421237 23.5192354,30.9433868 23.4863923,30.9471764 C23.3588097,30.9812827 23.2312271,31.0115993 23.1099604,31.0115993 C22.8143729,31.0115993 22.5465757,30.911807 22.3406751,30.7185383 C22.0248765,30.4204244 21.9238209,29.9543057 22.0615091,29.4389224 C22.0627723,29.4338696 22.0652987,29.4326064 22.0665619,29.4275536 C22.0678251,29.423764 22.0665619,29.4187113 22.0678251,29.4149217 L22.0678251,29.4149217 L23.3651257,25.2489067 C23.3676521,25.2413275 23.373968,25.2350115 23.3777576,25.2261692 C23.3916528,25.1870101 23.4169167,25.1529039 23.438391,25.1162713 C23.4598653,25.0809018 23.4788132,25.043006 23.5066035,25.0126893 C23.5129194,25.0063734 23.5154458,24.997531 23.5217618,24.9899518 L23.5217618,24.9899518 Z M35.4122103,15.3580948 C35.2821013,15.229249 35.0686214,15.2305122 34.935986,15.3631476 L34.935986,15.3631476 L24.5260013,25.7731323 L23.3032292,29.696614 L27.2267108,28.4751051 L37.6366956,18.0651203 C37.7680678,17.9324849 37.7705942,17.7190051 37.6417483,17.5888961 L37.6417483,17.5888961 Z" id="合并形状" stroke="#FFFFFF" stroke-width="0.4" fill="#FFFFFF"></path>
                    </g>
                </g>
            </g>
        </g>
    </g>
</svg>