<?xml version="1.0" encoding="UTF-8"?>
<svg width="53px" height="53px" viewBox="0 0 53 53" version="1.1" xmlns="http://www.w3.org/2000/svg" xmlns:xlink="http://www.w3.org/1999/xlink">
    <!-- Generator: Sketch 60 (88103) - https://sketch.com -->
    <title>icon</title>
    <desc>Created with Sketch.</desc>
    <defs>
        <linearGradient x1="50%" y1="0%" x2="50%" y2="100%" id="linearGradient-1">
            <stop stop-color="#F85454" offset="0%"></stop>
            <stop stop-color="#FF7272" offset="100%"></stop>
        </linearGradient>
    </defs>
    <g id="页面-1" stroke="none" stroke-width="1" fill="none" fill-rule="evenodd">
        <g id="集团首页-关键指标-日处理规模" transform="translate(-1168.000000, -175.000000)">
            <g id="日处理、服务、售水，漏损、水质、客服" transform="translate(380.000000, 156.000000)">
                <g id="综合漏损率(月)" transform="translate(768.000000, 0.000000)">
                    <g id="icon" transform="translate(20.000000, 19.000000)">
                        <rect id="矩形" fill="url(#linearGradient-1)" x="0" y="0" width="53" height="53" rx="26.5"></rect>
                        <path d="M30.24,28.2656842 C30.24,28.2656842 30.24,28.2656842 30.24,28.2669474 C29.5882105,29.0538947 29.1284211,29.7145263 29.1284211,30.9688421 L29.1284211,34.6698947 C29.1284211,35.4126316 29.1246316,35.6677895 28.4362105,36.12 L26.3482105,37.2997895 C25.6837895,37.6218947 25.4955789,37.5271579 25.4943158,37.5246316 C25.2682105,37.3818947 25.2732632,36.2248421 25.2770526,35.6677895 L25.2770526,35.6665263 L25.2770526,35.6652632 L25.2770526,30.6517895 C25.2770526,29.3052632 24.7301053,28.6370526 24.1515789,27.9309474 C24.1515789,27.9309474 24.1503158,27.9309474 24.1503158,27.9296842 C24.1503158,27.9296842 24.1503158,27.9296842 24.1503158,27.9284211 L18.3069474,20.8446316 C20.9494737,21.5722105 24.5936842,21.816 27,21.816 C29.4808421,21.816 33.2753684,21.5557895 35.9330526,20.7764211 L30.24,28.2656842 Z M27,16.2631579 C34.0837895,16.2631579 37.7368421,17.7663158 37.7368421,18.408 C37.7368421,19.0496842 34.0837895,20.5528421 27,20.5528421 C19.9162105,20.5528421 16.2631579,19.0496842 16.2631579,18.408 C16.2631579,17.7663158 19.9162105,16.2631579 27,16.2631579 L27,16.2631579 Z M39,18.408 C39,15.7124211 31.1507368,15 27,15 C22.8492632,15 15,15.7124211 15,18.408 C15,18.912 15.2753684,19.3465263 15.7503158,19.7216842 C15.7566316,19.7305263 15.7578947,19.7406316 15.7654737,19.7494737 L23.1751579,28.7330526 L23.1764211,28.7343158 C23.7410526,29.424 24.0138947,29.7953684 24.0138947,30.6517895 L24.0138947,35.6614737 C24.0075789,36.9044211 24.0012632,38.0778947 24.8210526,38.5945263 C25.0635789,38.7461053 25.3288421,38.8016842 25.5877895,38.8016842 C26.1498947,38.8016842 26.688,38.5402105 26.9128421,38.4315789 C26.9191579,38.4277895 26.9242105,38.4214737 26.9305263,38.4176842 C26.9355789,38.4151579 26.9418947,38.4164211 26.9469474,38.4138947 L29.0816842,37.2075789 C29.088,37.2037895 29.0917895,37.1974737 29.0981053,37.1936842 C29.1031579,37.1911579 29.1082105,37.1924211 29.112,37.1886316 C30.3915789,36.3562105 30.3915789,35.5364211 30.3915789,34.6698947 L30.3915789,30.9688421 C30.3915789,30.1035789 30.6934737,29.6955789 31.2290526,29.0513684 C31.2315789,29.0475789 31.2328421,29.0425263 31.2353684,29.0387368 C31.2391579,29.0349474 31.2429474,29.0336842 31.2454737,29.0298947 L38.4101053,19.6054737 C38.4265263,19.5814737 38.4315789,19.5549474 38.4454737,19.5309474 C38.7890526,19.2012632 39,18.8311579 39,18.408 L39,18.408 Z" stroke="#FFFFFF" stroke-width="0.4" fill="#FFFFFF"></path>
                    </g>
                </g>
            </g>
        </g>
    </g>
</svg>