<?xml version="1.0" encoding="UTF-8"?>
<svg width="53px" height="53px" viewBox="0 0 53 53" version="1.1" xmlns="http://www.w3.org/2000/svg" xmlns:xlink="http://www.w3.org/1999/xlink">
    <!-- Generator: Sketch 60 (88103) - https://sketch.com -->
    <title>icon</title>
    <desc>Created with Sketch.</desc>
    <defs>
        <linearGradient x1="50%" y1="100%" x2="50%" y2="3.061617e-15%" id="linearGradient-1">
            <stop stop-color="#51D9F0" offset="0%"></stop>
            <stop stop-color="#33B5D0" offset="100%"></stop>
        </linearGradient>
    </defs>
    <g id="页面-1" stroke="none" stroke-width="1" fill="none" fill-rule="evenodd">
        <g id="集团首页-关键指标-日处理规模" transform="translate(-912.000000, -175.000000)">
            <g id="日处理、服务、售水，漏损、水质、客服" transform="translate(380.000000, 156.000000)">
                <g id="水质合格率(月)" transform="translate(512.000000, 0.000000)">
                    <g id="icon" transform="translate(20.000000, 19.000000)">
                        <rect id="矩形" fill="url(#linearGradient-1)" x="0" y="0" width="53" height="53" rx="26.5"></rect>
                        <path d="M26.9996842,15.0006316 C27.3483066,15.0006316 27.6312465,15.2835715 27.6312465,15.6321939 L27.6312465,15.6321939 L27.6312465,26.3687535 L38.3678061,26.3687535 C38.7164285,26.3687535 38.9993684,26.6516934 38.9993684,27.0003158 C38.9993684,33.6165627 33.6159312,39 26.9996842,39 C20.3834373,39 15,33.6165627 15,27.0003158 C15,20.3840688 20.3834373,15.0006316 26.9996842,15.0006316 Z M26.3681219,16.2953343 C20.7421647,16.6250099 16.2631247,21.2935186 16.2631247,27.0003158 C16.2631247,32.920581 21.079419,37.7368753 26.9996842,37.7368753 C32.7064814,37.7368753 37.373727,33.2578353 37.7046657,27.6318781 L37.7046657,27.6318781 L26.9996842,27.6318781 C26.6510618,27.6318781 26.3681219,27.3489382 26.3681219,27.0003158 L26.3681219,27.0003158 Z M30.0534144,15 C34.9871793,15 38.9988632,19.0142102 38.9988632,23.9467119 C38.9988632,24.2953343 38.7171864,24.5782743 38.3673009,24.5782743 L38.3673009,24.5782743 L30.0534144,24.5782743 C29.704792,24.5782743 29.4218521,24.2953343 29.4218521,23.9467119 L29.4218521,23.9467119 L29.4218521,15.6315623 C29.4218521,15.2829399 29.704792,15 30.0534144,15 Z M30.6849767,16.2959659 L30.6849767,23.3151496 L37.7041604,23.3151496 C37.3984843,19.5826162 34.4175101,16.6016421 30.6849767,16.2959659 L30.6849767,16.2959659 Z" stroke="#FFFFFF" stroke-width="0.4" fill="#FFFFFF"></path>
                    </g>
                </g>
            </g>
        </g>
    </g>
</svg>