<?xml version="1.0" encoding="UTF-8"?>
<svg width="53px" height="53px" viewBox="0 0 53 53" version="1.1" xmlns="http://www.w3.org/2000/svg" xmlns:xlink="http://www.w3.org/1999/xlink">
    <!-- Generator: Sketch 60 (88103) - https://sketch.com -->
    <title>icon</title>
    <desc>Created with Sketch.</desc>
    <defs>
        <linearGradient x1="50%" y1="100%" x2="50%" y2="3.061617e-15%" id="linearGradient-1">
            <stop stop-color="#4FAEFB" offset="0%"></stop>
            <stop stop-color="#088AF4" offset="100%"></stop>
        </linearGradient>
    </defs>
    <g id="页面-1" stroke="none" stroke-width="1" fill="none" fill-rule="evenodd">
        <g id="集团首页-关键指标-日处理规模" transform="translate(-656.000000, -175.000000)">
            <g id="日处理、服务、售水，漏损、水质、客服" transform="translate(380.000000, 156.000000)">
                <g id="售水总量(万吨/月)" transform="translate(256.000000, 0.000000)">
                    <g id="icon" transform="translate(20.000000, 19.000000)">
                        <rect id="矩形" fill="url(#linearGradient-1)" x="0" y="0" width="53" height="53" rx="26.5"></rect>
                        <path d="M26.5174737,15 C27.3663158,15 28.1393684,15.4648421 28.5385263,16.2126316 L28.5385263,16.2126316 L34.3452632,27.1250526 C34.3477895,27.1301053 34.3477895,27.1351579 34.3503158,27.1414737 C34.3528421,27.1452632 34.3566316,27.1477895 34.3591579,27.1528421 C34.8530526,28.2037895 35.0362105,29.1056842 35.0362105,30.4812632 C35.0362105,35.1789474 31.2151579,39 26.5187368,39 C21.8210526,39 18,35.1789474 18,30.4812632 C18,29.3368421 18.2235789,28.224 18.6644211,27.1768421 C18.6694737,27.1667368 18.6783158,27.1591579 18.6833684,27.1490526 C18.6871579,27.1414737 18.6871579,27.1313684 18.6909474,27.1250526 L18.6909474,27.1250526 L24.4976842,16.2126316 C24.8968421,15.4648421 25.6698947,15 26.5174737,15 Z M27.4231579,16.8075789 C27.0618947,16.128 25.9768421,16.1254737 25.6130526,16.8075789 L25.6130526,16.8075789 L19.8227368,27.6858947 C19.4526316,28.5726316 19.2631579,29.5111579 19.2631579,30.4812632 C19.2631579,34.4816842 22.5183158,37.7368421 26.5187368,37.7368421 C30.5191579,37.7368421 33.7730526,34.4816842 33.7730526,30.4812632 C33.7730526,29.3014737 33.6277895,28.5713684 33.2223158,27.7035789 L33.2223158,27.7035789 Z M30.7741895,31.3043368 C30.8904,30.9746526 31.2491368,30.8028632 31.5788211,30.9140211 C31.9085053,31.0289684 32.0815579,31.3889684 31.9691368,31.7186526 C31.1013474,34.2197053 28.7379789,35.9009684 26.0891368,35.9009684 C25.7405053,35.9009684 25.4575579,35.6192842 25.4575579,35.2693895 C25.4575579,34.9207579 25.7405053,34.6378105 26.0891368,34.6378105 C28.1998737,34.6378105 30.0832421,33.2988632 30.7741895,31.3043368 Z" stroke="#FFFFFF" stroke-width="0.4" fill="#FFFFFF"></path>
                    </g>
                </g>
            </g>
        </g>
    </g>
</svg>