<?xml version="1.0" encoding="utf-8"?>
<!-- Generator: Adobe Illustrator 21.0.0, SVG Export Plug-In . SVG Version: 6.00 Build 0)  -->
<svg version="1.1" id="Layer_1" xmlns="http://www.w3.org/2000/svg" xmlns:xlink="http://www.w3.org/1999/xlink" x="0px" y="0px"
	 viewBox="0 0 802.8 194.9" style="enable-background:new 0 0 802.8 194.9;" xml:space="preserve">
<style type="text/css">
	.st0{fill:#FFFFFF;}
</style>
<title>数澜logo</title>
<path class="st0" d="M249.8,10.4c-4,0.2-6.6,0.4-13.3,0.6c-3.1-6.8-8.7-11.7-16.3-10.9c-6.6,0.6-12.7,5.4-13.6,12L187,12.7
	c0.5-6.8-1.9-10.8-10.5-10.8c-6.8,0-13.3,2.6-16.9,11.5c-8.8,0.2-17.1,0.3-24.3,0.3c-4.5,0-9.3,0-14.5-0.1
	c-1.5-11.2-8.5-12.7-15.5-13.4s-13.4,3.7-14,12.7c-7.8-0.2-15.6-0.4-23.2-0.7C67.4,3,61-0.6,54.1,0.1c-6.2,0.6-10,3.9-12.3,11.2
	c-8.4-0.3-13.9-0.6-18.9-0.8c-4.1-0.2-7.6,3-7.8,7.1c0,0.1,0,0.2,0,0.3v0.5c0,4,3.1,7.3,7.1,7.5c4.5,0.2,9.4,0.4,17,0.7
	c-1,17.4,0.7,44.3,0.8,54.7c0.1,8-3.9,17.3-14.5,22.4C6.2,113,0,127.8,0,145.3c0,52.1,76.2,51.5,129.2,48.5
	c74.7-4.3,96.8-35.3,107.6-65.8c6.3-18.1,6.8-29.7,6.8-63.6c0-21-1.1-31.1-2.5-38.2c5-0.2,6.1-0.4,9.3-0.5c3.6-0.2,6.5-3.1,6.5-6.8
	v-1.9c0-3.7-3-6.8-6.7-6.8C250,10.4,249.9,10.4,249.8,10.4z M68.6,153.4c4.1,0,7.9,1.9,10.3,5.2c-4.6,10-12.5,17.1-31.2,17.1
	c-15.7,0-26.6-7.1-31.1-17.1c2.4-3.3,6.2-5.3,10.2-5.3c7,0,12.6-5.6,12.6-12.6s-5.6-12.6-12.6-12.6s-12.6,5.6-12.6,12.6c0,0,0,0,0,0
	v-0.9c0-12.8,8.9-27.6,35-27.6c24.4,0,32,15.1,32.1,28.3c-0.1-7-5.8-12.6-12.7-12.5c-7,0.1-12.6,5.8-12.5,12.7
	C56.1,147.8,61.7,153.4,68.6,153.4L68.6,153.4z M95.9,86.2c-3.1,10.2-8.7,15.1-15.1,15.1c-14.5,0-22.7-24-22.7-43.1
	s4.2-23.3,7.3-30.7c9.3,0.3,19.1,0.6,28.8,0.8C98.5,47.7,98.7,77,95.9,86.2z M156,52.3c0,9.4,3.4,49-15,49c-8.3,0-14.3-5.2-20-25
	c-4.3-14.7-2.1-34.2-0.8-47.4C125.8,29,131.1,29,136,29c6.1,0,13-0.1,20.3-0.2C155.9,34.3,156,40.2,156,52.3L156,52.3z M194.5,101.3
	c-9.4,0-13.9-10-15.1-21.5c-3.1-27.9,0.8-40.4,4.1-51.6c9.1-0.2,18.2-0.5,26.8-0.8c2.8,6.7,6.3,14.2,7.6,27.5
	C220.4,81.1,210.3,101.3,194.5,101.3L194.5,101.3z M47.7,159.9c-2.8,0-5-2.2-5-5s2.2-5,5-5s5,2.2,5,5S50.4,159.9,47.7,159.9"/>
<path class="st0" d="M294.5,150.7h-9.7c-0.8-0.1-1.5,0.4-1.6,1.2c0,0.2,0,0.3,0,0.5v29.2c-0.1,0.8,0.4,1.5,1.2,1.6
	c0.2,0,0.3,0,0.5,0h9.7c8.4,0,13.3-4.6,13.3-12.2v-8.1C307.8,155.2,302.9,150.7,294.5,150.7z M302.2,171c0,4.6-2.9,7.2-8.1,7.2h-6
	v-22.6h6c5.2,0,8.1,2.6,8.1,7.2V171z"/>
<path class="st0" d="M358.7,150.7h-21c-1.1,0-1.6,0.5-1.6,1.6v1.7c0,1.1,0.5,1.6,1.6,1.6h7.9v25.9c0,1.1,0.5,1.6,1.6,1.6h2
	c1.1,0,1.6-0.5,1.6-1.6v-25.9h7.9c0.8,0.1,1.5-0.4,1.6-1.2c0-0.2,0-0.3,0-0.5v-1.7c0.1-0.8-0.4-1.5-1.1-1.6
	C359.1,150.6,358.9,150.6,358.7,150.7z"/>
<path class="st0" d="M427.1,150.7h-2c-1.1,0-1.8,0.2-2,1.4l-4.6,19.3c-0.2,0.8-0.4,1.7-0.5,2.6c-0.2-0.9-0.4-1.7-0.6-2.6l-5.2-18.9
	c-0.2-0.9-1.1-1.5-2-1.4h-1.9c-0.9-0.1-1.7,0.5-2,1.4l-5.2,18.9c-0.2,0.9-0.4,1.8-0.5,2.7c-0.1-1-0.3-1.9-0.5-2.7l-4.6-19.2
	c-0.2-1.2-0.9-1.4-2-1.4h-2.4c-0.4,0-0.8,0.1-1.1,0.4c-0.2,0.4-0.3,0.9-0.1,1.3l7.6,29.4c0.1,0.5,0.5,1.3,1.9,1.3h1.9
	c0.9,0.1,1.7-0.5,1.9-1.3l5.4-19.7c0.2-0.7,0.4-1.4,0.5-2.2c0.1,0.7,0.3,1.5,0.5,2.2l5.3,19.7c0.1,0.5,0.5,1.3,1.9,1.3h1.9
	c0.8,0,1.6-0.2,1.9-1.3l7.7-29.4c0.2-0.4,0.1-0.9-0.1-1.3C428,150.8,427.6,150.6,427.1,150.7z"/>
<path class="st0" d="M475.7,151.9c-0.3-0.8-1.1-1.3-1.9-1.2H472c-0.9-0.1-1.6,0.5-1.9,1.3l-11.5,29.4c-0.2,0.4-0.2,0.9,0.1,1.3
	c0.3,0.4,0.7,0.6,1.2,0.5h1.5c1.5,0,2.1-0.2,2.6-1.3l2.6-6.9h12.5l2.6,6.9c0.4,1.2,1.1,1.3,2.6,1.3h1.7c0.6,0.1,1.3-0.3,1.4-1
	c0-0.3,0-0.6-0.2-0.8L475.7,151.9z M468.1,170.5l4.2-11.1c0.2-0.5,0.3-1.1,0.4-1.7c0.1,0.6,0.3,1.2,0.5,1.7l4.2,11L468.1,170.5z"/>
<path class="st0" d="M543.8,150.7h-1.6c-1.5,0-2.2,0.2-2.6,1.3l-7.6,21.4c-0.3,0.8-0.5,1.8-0.8,2.6c-0.2-0.9-0.5-1.9-0.8-2.7
	l-7.7-21.3c-0.4-1.1-1.1-1.3-2.5-1.3h-1.7c-0.5,0-0.9,0.1-1.2,0.5c-0.2,0.4-0.3,0.9-0.1,1.3l11.1,29.4c0.3,0.8,1,1.3,1.9,1.2h1.8
	c0.8,0.1,1.6-0.5,1.9-1.3l11.1-29.4c0.2-0.4,0.2-0.9,0-1.3C544.7,150.8,544.3,150.6,543.8,150.7z"/>
<path class="st0" d="M598.5,178.2h-14.8v-9H596c1.2,0,1.6-0.5,1.6-1.6v-1.7c0-1.2-0.5-1.7-1.6-1.7h-12.2v-8.6H598
	c1.1,0,1.6-0.5,1.6-1.6v-1.7c0-1.1-0.5-1.6-1.6-1.6h-17.8c-0.8-0.1-1.5,0.4-1.6,1.2c0,0.1,0,0.3,0,0.4v29.2
	c-0.1,0.8,0.4,1.5,1.2,1.6c0.2,0,0.3,0,0.5,0h18.4c1.1,0,1.6-0.5,1.6-1.6v-1.7C600.2,178.7,599.7,178.2,598.5,178.2z"/>
<path class="st0" d="M628.2,177.4H628c-2,0-2.7,0.7-2.7,2.7v0.3c0,2,0.7,2.7,2.7,2.7h0.3c2,0,2.7-0.7,2.7-2.7v-0.3
	C631,178.1,630.2,177.4,628.2,177.4z"/>
<path class="st0" d="M678,173.5l-1.7-0.6c-0.7-0.3-1.5-0.1-1.9,0.6c-0.1,0.1-0.1,0.3-0.1,0.4c-1,3.2-3.2,4.6-7.2,4.6
	c-4.7,0-7.3-2.4-7.3-6.6V162c0-4.2,2.6-6.6,7.3-6.6c4,0,6.1,1.3,7.1,4.5c0.2,0.8,0.9,1.2,1.6,1.1c0.1,0,0.2-0.1,0.4-0.1l1.8-0.6
	c0.8-0.2,1.3-1,1.1-1.8c0-0.1,0-0.1-0.1-0.2c-1.6-5-5.6-7.6-11.9-7.6c-7.8,0-12.4,4.2-12.4,11.4v9.7c0,7.1,4.6,11.4,12.4,11.4
	c6.3,0,10.3-2.6,11.9-7.6c0.2-0.4,0.2-0.9,0-1.3C678.8,173.8,678.4,173.6,678,173.5z"/>
<path class="st0" d="M724.3,150.7c-7.8,0-12.4,4.2-12.4,11.4v9.7c0,7.1,4.6,11.4,12.4,11.4s12.4-4.2,12.4-11.4v-9.7
	C736.7,154.9,732.1,150.7,724.3,150.7z M731.7,171.8c0,4.3-2.6,6.6-7.4,6.6s-7.3-2.4-7.3-6.6v-9.7c0-4.3,2.6-6.6,7.3-6.6
	s7.4,2.4,7.4,6.6V171.8z"/>
<path class="st0" d="M800.6,150.7H799c-0.9-0.1-1.7,0.4-2,1.2l-9.8,17.4l-9.8-17.4c-0.3-0.8-1.2-1.2-2-1.1h-1.5
	c-0.8-0.1-1.5,0.4-1.6,1.2c0,0.2,0,0.3,0,0.5v29.2c0,1.1,0.5,1.6,1.6,1.6h1.7c1.1,0,1.6-0.5,1.6-1.6v-16c0-1.8-0.1-3.6-0.3-5.4
	c0.7,1.6,1.4,3.2,2.3,4.6l5.7,10.1c0.3,0.7,1,1.1,1.8,1.1h1.1c0.7,0,1.4-0.4,1.8-1.1l5.6-10c1-1.7,1.8-3.3,2.5-4.8
	c-0.2,1.8-0.4,3.6-0.4,5.5v16c0,1.1,0.5,1.6,1.6,1.6h1.8c0.8,0.1,1.5-0.4,1.6-1.2c0-0.1,0-0.3,0-0.4v-29.2c0.1-0.8-0.4-1.5-1.2-1.6
	C801,150.7,800.8,150.7,800.6,150.7z"/>
<path class="st0" d="M587.6,16.6h-32.4v11.5h21.5v11.6h-21.5v11.5h21.5v80h11.5v-80h18.6V39.7h-18.6V28c4.5-0.1,21.3-1.3,21.9-16.3
	h-13.2C595.2,15,592.2,16.6,587.6,16.6z"/>
<rect x="595.3" y="62.4" class="st0" width="11.5" height="68.8"/>
<polygon class="st0" points="663.1,131.1 663.1,99.4 670.6,99.4 670.6,87.9 663.1,87.9 663.1,11.7 651.6,11.7 651.6,87.9 
	613.7,87.9 613.7,99.4 651.6,99.4 651.6,131.1 "/>
<rect x="623.7" y="19.5" transform="matrix(0.3029 -0.953 0.953 0.3029 409.2545 621.5063)" class="st0" width="11.5" height="23"/>
<rect x="623.7" y="50.1" transform="matrix(0.3027 -0.9531 0.9531 0.3027 380.2955 642.8627)" class="st0" width="11.5" height="23"/>
<path class="st0" d="M558.1,88.1L558.1,88.1c0,12.8-1.4,25.5-4.1,38l-1.3,5h11.9l0.6-2.5c2.9-13.3,4.4-26.9,4.4-40.6V62.4h-11.5
	L558.1,88.1z"/>
<path class="st0" d="M714.7,83.8L731,73.4l-6.2-9.7l-10.1,6.5v-29h15.9V29.6h-15.9v-18h-11.5v18h-15.9v11.5h15.9v36.3l-15.9,10.1
	l6.2,9.7l9.7-6.2v22.4c-0.1,3.5-3,6.2-6.5,6.1h-9.4v11.5h9.4c9.8,0.1,17.8-7.8,17.9-17.6L714.7,83.8z"/>
<path class="st0" d="M802.7,122.5l-25.7-22.3l18-15.6c6.3-6.3,7.2-9.7,7.2-17.5V55.8h-28.3V36.9h28.2V25.4h-28.2V11.8h-11.5v13.7
	h-28.2v11.5h28.2v18.9h-28.1v11.5l56.3-0.1c0,0,0.5,5.2-2.5,8.1l-20,17.3l-25-21.8l-7.5,8.7l23.8,20.7l-25.7,22.3l7.5,8.7l26.9-23.3
	l26.9,23.4L802.7,122.5z"/>
<polygon class="st0" points="305.3,64 316.8,64 316.8,43.8 338.8,43.8 338.8,32.3 316.8,32.3 316.8,12.2 305.3,12.2 305.3,32.3 
	283.2,32.3 283.2,43.8 305.3,43.8 "/>
<rect x="284.9" y="12.2" class="st0" width="11.5" height="15.2"/>
<rect x="325.5" y="12.2" class="st0" width="11.5" height="15.2"/>
<rect x="284.9" y="48.8" class="st0" width="11.5" height="15.2"/>
<rect x="325.5" y="48.8" class="st0" width="11.5" height="15.2"/>
<path class="st0" d="M323.4,113.3l2.3-1.3c5.1-2.6,8.4-7.9,8.4-13.7V85.2h4.5V73.6H299V68h-11.5v5.6h-4.5v11.5h4.5v12.7
	c-0.2,6,3.1,11.5,8.4,14.2l2.6,1.3l-15.5,8l5.3,10.2l22.6-11.8l22.7,11.8l5.3-10.2L323.4,113.3z M322.7,98.3c0,1.4-0.8,2.7-2,3.4
	l-9.7,5.1l-10-5.1c-1.2-0.7-2-1.9-2-3.3V85.1h23.6L322.7,98.3z"/>
<path class="st0" d="M398.4,123L379,105.6c7.2-6.8,12.2-10.2,12.3-22.1V35h7.1V23.5h-38.9c0-0.1,0-0.3,0-0.4V12.2H348v10.9
	c0,6.1-1.1,12.2-3.4,17.9l-3.4,8.5h12.4l1.7-4.4c1.3-3.3,2.3-6.7,2.9-10.1h21.6v48.5c-0.2,6.2-3.1,9.5-9.5,14.4l-2.8-2.4
	c-3.7-3.2-6.7-7.5-6.7-12.2V54.8h-11.5v28.5c0,8.1,4.2,15.3,10.4,20.6l1.9,1.7L342.4,123l7.7,8.5l20.4-18.2l20.3,18.2L398.4,123z"/>
<rect x="417.6" y="11.9" class="st0" width="11.5" height="19.2"/>
<rect x="417.6" y="49.6" class="st0" width="11.5" height="19.2"/>
<rect x="434.6" y="11.9" class="st0" width="11.5" height="11.4"/>
<polygon class="st0" points="410.8,131.4 421.9,131.4 429.1,90.7 417.5,90.7 "/>
<rect x="434.6" y="34.1" class="st0" width="11.5" height="97.3"/>
<path class="st0" d="M532.9,116.5V26.1c-0.1-7.9-6.5-14.3-14.4-14.2H452v11.5h66.5c1.6-0.1,2.9,1.2,3,2.7v90.3
	c-0.1,2-1.7,3.5-3.7,3.4h-11v11.5h11C526,131.4,532.8,124.7,532.9,116.5z"/>
<path class="st0" d="M515.3,75.9V48l-26-0.2v-6h25.8V30.3h-25.8v-4h-11.5v4h-26v11.5h26v6h-26v44.7h26v38.9h11.5V92.5h9.3
	C507.7,92.6,515.2,85.2,515.3,75.9C515.3,76,515.3,76,515.3,75.9z M477.8,81h-14.5V69.6l7.6,9.6l6.9-5.7L477.8,81z M477.8,70.8
	l-7-8.7l-7.6,6.3v-9h14.5L477.8,70.8z M503.8,59.3L503.8,59.3v9l-7.6-6.1l-6.9,8.7V59.3L503.8,59.3z M489.3,81L489.3,81v-7.5
	l6.9,5.7l7.6-9.5V76c0,2.8-2.3,5.1-5.2,5.1c0,0-0.1,0-0.1,0L489.3,81z"/>
<polygon class="st0" points="472.3,100.7 462.2,95.3 448.4,121.3 458.6,126.7 "/>
<polygon class="st0" points="504.6,95.3 495.7,102.6 506.2,115.8 515.1,108.4 "/>
</svg>
